<?xml version="1.0" encoding="UTF-8"?>
<!DOCTYPE svg PUBLIC "-//W3C//DTD SVG 1.1//EN" "http://www.w3.org/Graphics/SVG/1.1/DTD/svg11.dtd">
<!-- Creator: CorelDRAW 2019 (64-Bit) -->
<svg xmlns="http://www.w3.org/2000/svg" xml:space="preserve" width="24.6956mm" height="27.5998mm" version="1.1" style="shape-rendering:geometricPrecision; text-rendering:geometricPrecision; image-rendering:optimizeQuality; fill-rule:evenodd; clip-rule:evenodd" viewBox="0 0 662.8 740.74" xmlns:xlink="http://www.w3.org/1999/xlink" xmlns:xodm="http://www.corel.com/coreldraw/odm/2003">
 <defs>
  <style type="text/css">
   <![CDATA[
    .fil0 {fill:#A16F29}
    .fil1 {fill:#A9A6A5}
    .fil11 {fill:#A2ADD8}
    .fil3 {fill:#3A3735}
    .fil4 {fill:url(#id0)}
    .fil8 {fill:url(#id1)}
    .fil7 {fill:url(#id2)}
    .fil13 {fill:url(#id3)}
    .fil10 {fill:url(#id4)}
    .fil17 {fill:url(#id5)}
    .fil9 {fill:url(#id6)}
    .fil2 {fill:url(#id7)}
    .fil12 {fill:url(#id8)}
    .fil56 {fill:url(#id9)}
    .fil15 {fill:url(#id10)}
    .fil16 {fill:url(#id11)}
    .fil14 {fill:url(#id12)}
    .fil5 {fill:url(#id13)}
    .fil6 {fill:url(#id14)}
    .fil20 {fill:url(#id15);fill-rule:nonzero}
    .fil50 {fill:url(#id16);fill-rule:nonzero}
    .fil35 {fill:url(#id17);fill-rule:nonzero}
    .fil45 {fill:url(#id18);fill-rule:nonzero}
    .fil33 {fill:url(#id19);fill-rule:nonzero}
    .fil52 {fill:url(#id20);fill-rule:nonzero}
    .fil34 {fill:url(#id21);fill-rule:nonzero}
    .fil53 {fill:url(#id22);fill-rule:nonzero}
    .fil29 {fill:url(#id23);fill-rule:nonzero}
    .fil43 {fill:url(#id24);fill-rule:nonzero}
    .fil24 {fill:url(#id25);fill-rule:nonzero}
    .fil32 {fill:url(#id26);fill-rule:nonzero}
    .fil48 {fill:url(#id27);fill-rule:nonzero}
    .fil18 {fill:url(#id28);fill-rule:nonzero}
    .fil27 {fill:url(#id29);fill-rule:nonzero}
    .fil19 {fill:url(#id30);fill-rule:nonzero}
    .fil46 {fill:url(#id31);fill-rule:nonzero}
    .fil28 {fill:url(#id32);fill-rule:nonzero}
    .fil49 {fill:url(#id33);fill-rule:nonzero}
    .fil47 {fill:url(#id34);fill-rule:nonzero}
    .fil25 {fill:url(#id35);fill-rule:nonzero}
    .fil54 {fill:url(#id36);fill-rule:nonzero}
    .fil51 {fill:url(#id37);fill-rule:nonzero}
    .fil55 {fill:url(#id38);fill-rule:nonzero}
    .fil44 {fill:url(#id39);fill-rule:nonzero}
    .fil37 {fill:url(#id40);fill-rule:nonzero}
    .fil30 {fill:url(#id41);fill-rule:nonzero}
    .fil22 {fill:url(#id42);fill-rule:nonzero}
    .fil38 {fill:url(#id43);fill-rule:nonzero}
    .fil42 {fill:url(#id44);fill-rule:nonzero}
    .fil39 {fill:url(#id45);fill-rule:nonzero}
    .fil31 {fill:url(#id46);fill-rule:nonzero}
    .fil23 {fill:url(#id47);fill-rule:nonzero}
    .fil36 {fill:url(#id48);fill-rule:nonzero}
    .fil21 {fill:url(#id49);fill-rule:nonzero}
    .fil26 {fill:url(#id50);fill-rule:nonzero}
    .fil40 {fill:url(#id51);fill-rule:nonzero}
    .fil41 {fill:url(#id52);fill-rule:nonzero}
    .fil57 {fill:url(#id53);fill-rule:nonzero}
    .fil58 {fill:url(#id54);fill-rule:nonzero}
   ]]>
  </style>
  <radialGradient id="id0" gradientUnits="userSpaceOnUse" gradientTransform="matrix(7.48098 -0 -0 7.4808 -2148 -2487)" cx="331.44" cy="383.72" r="1328.84" fx="331.44" fy="383.72">
   <stop offset="0" style="stop-opacity:1; stop-color:#FCF4A7"/>
   <stop offset="1" style="stop-opacity:1; stop-color:#DFC75C"/>
  </radialGradient>
  <radialGradient id="id1" gradientUnits="userSpaceOnUse" gradientTransform="matrix(15.4048 -0 -0 15.4042 -3442 -6197)" xlink:href="#id0" cx="238.97" cy="430.19" r="710.99" fx="238.97" fy="430.19">
  </radialGradient>
  <radialGradient id="id2" gradientUnits="userSpaceOnUse" gradientTransform="matrix(15.4046 -0 -0 15.4044 -6106 -6197)" xlink:href="#id0" cx="423.91" cy="430.19" r="710.99" fx="423.91" fy="430.19">
  </radialGradient>
  <radialGradient id="id3" gradientUnits="userSpaceOnUse" gradientTransform="matrix(3.9574 -0 -0 3.95734 -980 -953)" xlink:href="#id0" cx="331.44" cy="322.25" r="816.64" fx="331.44" fy="322.25">
  </radialGradient>
  <radialGradient id="id4" gradientUnits="userSpaceOnUse" gradientTransform="matrix(1.10382 -0 -0 1.10381 -34 -10)" cx="329.38" cy="95.38" r="834.82" fx="329.38" fy="95.38">
   <stop offset="0" style="stop-opacity:1; stop-color:#FCF5D4"/>
   <stop offset="0.988235" style="stop-opacity:1; stop-color:#FEE99C"/>
   <stop offset="1" style="stop-opacity:1; stop-color:#FFDE65"/>
  </radialGradient>
  <radialGradient id="id5" gradientUnits="userSpaceOnUse" gradientTransform="matrix(-40.5018 -4.96004E-15 4.95979E-15 -40.4998 18899 28766)" cx="455.39" cy="693.17" r="199.21" fx="455.39" fy="693.17">
   <stop offset="0" style="stop-opacity:1; stop-color:#FBEB1B"/>
   <stop offset="1" style="stop-opacity:1; stop-color:#AB7919"/>
  </radialGradient>
  <radialGradient id="id6" gradientUnits="userSpaceOnUse" gradientTransform="matrix(1.09539 -0 -0 1.09542 -31 -6)" xlink:href="#id4" cx="328.11" cy="60.81" r="932.44" fx="328.11" fy="60.81">
  </radialGradient>
  <radialGradient id="id7" gradientUnits="userSpaceOnUse" gradientTransform="matrix(7.5413 -0 -0 7.54111 -2092 -2423)" cx="319.74" cy="370.37" r="1691.91" fx="319.74" fy="370.37">
   <stop offset="0" style="stop-opacity:1; stop-color:#FCF4A7"/>
   <stop offset="1" style="stop-opacity:1; stop-color:#CFAD14"/>
  </radialGradient>
  <radialGradient id="id8" gradientUnits="userSpaceOnUse" gradientTransform="matrix(1.24029 -0 -0 1.24024 -51 -55)" cx="211.34" cy="230.2" r="917.83" fx="211.34" fy="230.2">
   <stop offset="0" style="stop-opacity:1; stop-color:#FBF3CA"/>
   <stop offset="1" style="stop-opacity:1; stop-color:#D4BC77"/>
  </radialGradient>
  <radialGradient id="id9" gradientUnits="userSpaceOnUse" gradientTransform="matrix(1.28221 -0 -0 1.07359 -91 -46)" xlink:href="#id7" cx="322.47" cy="631.9" r="1309.48" fx="322.47" fy="631.9">
  </radialGradient>
  <radialGradient id="id10" gradientUnits="userSpaceOnUse" gradientTransform="matrix(40.5004 -0 -0 40.4985 -7581 -27379)" xlink:href="#id5" cx="191.91" cy="693.17" r="199.21" fx="191.91" fy="693.17">
  </radialGradient>
  <radialGradient id="id11" gradientUnits="userSpaceOnUse" gradientTransform="matrix(-47.9889 -5.87694E-15 5.87687E-15 -47.9883 18984 31442)" xlink:href="#id5" cx="387.51" cy="641.82" r="150.42" fx="387.51" fy="641.82">
  </radialGradient>
  <radialGradient id="id12" gradientUnits="userSpaceOnUse" gradientTransform="matrix(47.9887 -0 -0 47.9881 -9433 -30158)" xlink:href="#id5" cx="200.75" cy="641.82" r="150.42" fx="200.75" fy="641.82">
  </radialGradient>
  <radialGradient id="id13" gradientUnits="userSpaceOnUse" gradientTransform="matrix(37.5376 -0 -0 37.5381 -3482 -18196)" xlink:href="#id5" cx="95.3" cy="497.99" r="3149.65" fx="95.3" fy="497.99">
  </radialGradient>
  <radialGradient id="id14" gradientUnits="userSpaceOnUse" gradientTransform="matrix(-37.5374 -4.59701E-15 4.59707E-15 -37.5379 10378 19192)" xlink:href="#id5" cx="269.3" cy="498.01" r="3149.65" fx="269.3" fy="498.01">
  </radialGradient>
  <linearGradient id="id15" gradientUnits="userSpaceOnUse" x1="15.51" y1="444.8" x2="67.96" y2="426.64">
   <stop offset="0" style="stop-opacity:1; stop-color:#FCD63D"/>
   <stop offset="0.168627" style="stop-opacity:1; stop-color:#FCD63D"/>
   <stop offset="0.380392" style="stop-opacity:1; stop-color:#FBF295"/>
   <stop offset="0.509804" style="stop-opacity:1; stop-color:#FCD63D"/>
   <stop offset="0.639216" style="stop-opacity:1; stop-color:#F0C535"/>
   <stop offset="0.909804" style="stop-opacity:1; stop-color:#DFB52B"/>
   <stop offset="1" style="stop-opacity:1; stop-color:#FCD63D"/>
  </linearGradient>
  <linearGradient id="id16" gradientUnits="userSpaceOnUse" xlink:href="#id15" x1="621.41" y1="341.12" x2="559.74" y2="313.7">
  </linearGradient>
  <linearGradient id="id17" gradientUnits="userSpaceOnUse" xlink:href="#id15" x1="69.54" y1="169.62" x2="129.84" y2="136.78">
  </linearGradient>
  <linearGradient id="id18" gradientUnits="userSpaceOnUse" xlink:href="#id15" x1="611.42" y1="149.78" x2="577.88" y2="131.52">
  </linearGradient>
  <linearGradient id="id19" gradientUnits="userSpaceOnUse" xlink:href="#id15" x1="43.39" y1="251.93" x2="104.86" y2="221.89">
  </linearGradient>
  <linearGradient id="id20" gradientUnits="userSpaceOnUse" xlink:href="#id15" x1="619.41" y1="251.93" x2="557.94" y2="221.9">
  </linearGradient>
  <linearGradient id="id21" gradientUnits="userSpaceOnUse" xlink:href="#id15" x1="53.7" y1="210.38" x2="114.99" y2="178.73">
  </linearGradient>
  <linearGradient id="id22" gradientUnits="userSpaceOnUse" xlink:href="#id15" x1="609.1" y1="210.37" x2="547.8" y2="178.74">
  </linearGradient>
  <linearGradient id="id23" gradientUnits="userSpaceOnUse" xlink:href="#id15" x1="68.32" y1="431.29" x2="119.21" y2="413.67">
  </linearGradient>
  <linearGradient id="id24" gradientUnits="userSpaceOnUse" xlink:href="#id15" x1="645.06" y1="239.34" x2="615.07" y2="224.68">
  </linearGradient>
  <linearGradient id="id25" gradientUnits="userSpaceOnUse" xlink:href="#id15" x1="17.74" y1="239.34" x2="47.73" y2="224.68">
  </linearGradient>
  <linearGradient id="id26" gradientUnits="userSpaceOnUse" xlink:href="#id15" x1="37.67" y1="296.63" x2="101.46" y2="268.22">
  </linearGradient>
  <linearGradient id="id27" gradientUnits="userSpaceOnUse" xlink:href="#id15" x1="594.47" y1="431.29" x2="543.59" y2="413.67">
  </linearGradient>
  <linearGradient id="id28" gradientUnits="userSpaceOnUse" xlink:href="#id15" x1="46.84" y1="555.28" x2="129.71" y2="537.79">
  </linearGradient>
  <linearGradient id="id29" gradientUnits="userSpaceOnUse" xlink:href="#id15" x1="120.43" y1="528.05" x2="160.57" y2="519.58">
  </linearGradient>
  <linearGradient id="id30" gradientUnits="userSpaceOnUse" xlink:href="#id15" x1="28.42" y1="502.16" x2="95.98" y2="481.62">
  </linearGradient>
  <linearGradient id="id31" gradientUnits="userSpaceOnUse" xlink:href="#id15" x1="542.37" y1="528.05" x2="502.23" y2="519.58">
  </linearGradient>
  <linearGradient id="id32" gradientUnits="userSpaceOnUse" xlink:href="#id15" x1="92.38" y1="479.64" x2="136.31" y2="466.29">
  </linearGradient>
  <linearGradient id="id33" gradientUnits="userSpaceOnUse" xlink:href="#id15" x1="611.46" y1="383.67" x2="551.95" y2="361.89">
  </linearGradient>
  <linearGradient id="id34" gradientUnits="userSpaceOnUse" xlink:href="#id15" x1="570.42" y1="479.64" x2="526.49" y2="466.29">
  </linearGradient>
  <linearGradient id="id35" gradientUnits="userSpaceOnUse" xlink:href="#id15" x1="32.87" y1="193.2" x2="62.66" y2="177.82">
  </linearGradient>
  <linearGradient id="id36" gradientUnits="userSpaceOnUse" xlink:href="#id15" x1="593.27" y1="169.61" x2="532.95" y2="136.8">
  </linearGradient>
  <linearGradient id="id37" gradientUnits="userSpaceOnUse" xlink:href="#id15" x1="625.13" y1="296.63" x2="561.34" y2="268.22">
  </linearGradient>
  <linearGradient id="id38" gradientUnits="userSpaceOnUse" xlink:href="#id15" x1="580.18" y1="126.13" x2="525.27" y2="93.62">
  </linearGradient>
  <linearGradient id="id39" gradientUnits="userSpaceOnUse" xlink:href="#id15" x1="629.92" y1="193.2" x2="600.13" y2="177.82">
  </linearGradient>
  <linearGradient id="id40" gradientUnits="userSpaceOnUse" xlink:href="#id15" x1="615.96" y1="555.28" x2="533.09" y2="537.79">
  </linearGradient>
  <linearGradient id="id41" gradientUnits="userSpaceOnUse" xlink:href="#id15" x1="51.34" y1="383.67" x2="110.85" y2="361.89">
  </linearGradient>
  <linearGradient id="id42" gradientUnits="userSpaceOnUse" xlink:href="#id15" x1="7.01" y1="339.52" x2="39.51" y2="325.07">
  </linearGradient>
  <linearGradient id="id43" gradientUnits="userSpaceOnUse" xlink:href="#id15" x1="634.38" y1="502.16" x2="566.82" y2="481.62">
  </linearGradient>
  <linearGradient id="id44" gradientUnits="userSpaceOnUse" xlink:href="#id15" x1="653.39" y1="288.07" x2="624.39" y2="275.15">
  </linearGradient>
  <linearGradient id="id45" gradientUnits="userSpaceOnUse" xlink:href="#id15" x1="647.29" y1="444.8" x2="594.84" y2="426.64">
  </linearGradient>
  <linearGradient id="id46" gradientUnits="userSpaceOnUse" xlink:href="#id15" x1="41.38" y1="341.12" x2="103.05" y2="313.7">
  </linearGradient>
  <linearGradient id="id47" gradientUnits="userSpaceOnUse" xlink:href="#id15" x1="9.4" y1="288.07" x2="38.41" y2="275.15">
  </linearGradient>
  <linearGradient id="id48" gradientUnits="userSpaceOnUse" xlink:href="#id15" x1="82.62" y1="126.13" x2="137.53" y2="93.62">
  </linearGradient>
  <linearGradient id="id49" gradientUnits="userSpaceOnUse" xlink:href="#id15" x1="9.78" y1="391.63" x2="51.19" y2="376.48">
  </linearGradient>
  <linearGradient id="id50" gradientUnits="userSpaceOnUse" xlink:href="#id15" x1="51.37" y1="149.78" x2="84.92" y2="131.52">
  </linearGradient>
  <linearGradient id="id51" gradientUnits="userSpaceOnUse" xlink:href="#id15" x1="653.02" y1="391.63" x2="611.61" y2="376.48">
  </linearGradient>
  <linearGradient id="id52" gradientUnits="userSpaceOnUse" xlink:href="#id15" x1="655.78" y1="339.52" x2="623.29" y2="325.07">
  </linearGradient>
  <radialGradient id="id53" gradientUnits="userSpaceOnUse" gradientTransform="matrix(2.02187 -0 -0 2.0219 -346 -662)" cx="338.33" cy="647.74" r="651.91" fx="338.33" fy="647.74">
   <stop offset="0" style="stop-opacity:1; stop-color:#F4CB51"/>
   <stop offset="1" style="stop-opacity:1; stop-color:#AE985D"/>
  </radialGradient>
  <radialGradient id="id54" gradientUnits="userSpaceOnUse" gradientTransform="matrix(2.79713 -0 -0 2.79717 -609 -1164)" xlink:href="#id53" cx="338.81" cy="647.81" r="536.19" fx="338.81" fy="647.81">
  </radialGradient>
 </defs>
 <g id="Слой_x0020_1">
  <metadata id="CorelCorpID_0Corel-Layer"/>
  <g id="_2261596345552">
   <path class="fil0" d="M331.43 740.74l0 -0.02c181.64,-45.77 283.09,-197.3 307.85,-448.76 4.86,-49.35 6.76,-102.55 5.74,-159.56 -43.21,-29.77 -74.77,-69.89 -93.69,-115.63 -62.12,-11.18 -141.04,-16.77 -219.95,-16.77 -78.91,0 -157.82,5.59 -219.92,16.77 -18.92,45.74 -50.48,85.86 -93.69,115.63 -0.91,50.75 0.5,98.49 4.25,143.18 21.92,261.26 123.79,418.38 309.34,465.13l0 0.02c0.02,-0 0.03,-0.01 0.05,-0.01 0.02,0 0.03,0.01 0.05,0.01z"/>
   <path class="fil1" d="M118.87 25.48c69.34,-11.29 140.95,-16.93 212.56,-16.93 71.61,0 143.23,5.64 212.57,16.93 20.92,48.29 55.88,82.54 92.83,114.79 0.4,58.91 -2.24,113.98 -8.07,164.99 -26.65,232.86 -120.09,380.99 -297.28,422.92 0,0.01 0,0.02 0,0.02 -0.02,-0.01 -0.03,-0.01 -0.05,-0.01 -0.02,0 -0.03,0.01 -0.05,0.01 0,-0.01 0,-0.02 0,-0.02 -177.18,-41.93 -270.63,-190.06 -297.28,-422.92 -5.84,-51.01 -8.47,-106.08 -8.07,-164.99 36.96,-32.25 71.91,-66.51 92.83,-114.79z"/>
   <path class="fil2" d="M130.85 40.53c64.24,-10.73 132.41,-16.1 200.59,-16.1 68.18,0 136.35,5.37 200.59,16.1 25.58,44.67 55.61,79.44 91.83,110.8 -0.37,53.35 -3.13,104.5 -8.91,152.8 -24.48,204.63 -103.12,358.22 -283.47,412.15 0,0.01 0,0.02 0,0.03 -0.02,-0.01 -0.03,-0.01 -0.05,-0.01 -0.02,0.01 -0.03,0.01 -0.05,0.01 0,-0.01 0,-0.02 0,-0.03 -181.12,-54.16 -259.66,-208.84 -283.78,-414.78 -5.57,-47.53 -8.23,-97.78 -8.59,-150.17 36.23,-31.36 66.25,-66.13 91.83,-110.8z"/>
   <path class="fil3" d="M139.84 49.54c62.35,-10.1 126.99,-15.16 191.62,-15.16 64.63,0 129.26,5.05 191.59,15.16 31.36,50.08 62.14,83.35 90.83,106.81 0.25,51.76 -2.41,101.27 -8.15,147.92 -25.51,207.32 -111.87,358.48 -274.24,402.06 0,0.01 0,0.02 0,0.03 -0.01,-0 -0.03,-0.01 -0.05,-0.01 -0.02,0.01 -0.03,0.01 -0.05,0.01 0,-0.01 0,-0.02 0,-0.03 -160.06,-42.96 -246.26,-190.46 -273.12,-393.25 -6.52,-49.22 -9.54,-101.7 -9.27,-156.73 28.7,-23.46 59.47,-56.73 90.83,-106.81z"/>
   <path class="fil4" d="M331.49 655.43c0,-0.01 0,-0.02 0,-0.03 121.47,-44.21 198.28,-134.93 222.39,-286.92 7.38,-46.53 9.82,-98.8 7.1,-157.24 -33.27,-20.88 -54.57,-49 -71.87,-85.84 -33.48,-8.92 -95.61,-13.37 -157.73,-13.36 -62.12,0.01 -124.21,4.46 -157.61,13.36 -17.3,36.85 -38.6,64.96 -71.87,85.84 -2.73,58.44 -0.29,110.71 7.09,157.24 24.11,151.99 100.93,242.71 222.39,286.92 0,0.01 0,0.02 0,0.03 0.02,-0.01 0.03,-0.01 0.05,-0.02 0.02,0.01 0.03,0.01 0.05,0.02z"/>
   <path class="fil1" d="M331.49 646.2c-0.01,-0.01 -0.03,-0.01 -0.05,-0.02 -0.02,0.01 -0.03,0.01 -0.05,0.02 0,-0.01 0,-0.02 0,-0.04 -113.51,-43.73 -190.46,-130.11 -213.53,-279.35 -6.76,-43.72 -8.9,-92.83 -5.97,-147.84 31.36,-24.95 53.48,-52.9 68.87,-85.84 42.85,-7.96 96.81,-11.89 150.75,-11.86 53.94,0.02 107.85,4 150.61,11.86 15.39,32.94 37.52,60.89 68.87,85.84 2.92,55.01 0.79,104.12 -5.97,147.84 -23.07,149.24 -100.02,235.63 -213.53,279.35 0,0.01 0,0.03 0,0.04z"/>
   <path class="fil5" d="M74.26 438.64c-25.06,-69.98 -56.65,-203.98 37.27,-336.61 -73.15,97.12 -89.45,205.35 -40.88,342.53 54.18,153.03 157.84,270.01 374.47,285.98 0.2,-4.48 0.4,-8.97 0.62,-13.45 -211.1,-13.17 -303.76,-103.93 -371.47,-278.45z"/>
   <path class="fil6" d="M588.41 438.66c25.06,-69.98 56.65,-203.98 -37.27,-336.61 73.15,97.12 89.45,205.35 40.88,342.53 -54.18,153.03 -157.84,270.01 -374.47,285.98 -0.2,-4.48 -0.4,-8.97 -0.62,-13.45 211.1,-13.17 303.76,-103.93 371.47,-278.45z"/>
   <path class="fil7" d="M513.72 476.97c-17.44,39.13 -40.47,71.74 -68.42,98.6 -17.78,-17.2 -27.49,-50.54 -29.13,-100.03 -8.12,-111.56 -44.33,-137.62 -82.07,-190.72 87.78,25.98 132.26,77.75 161.79,160.02 4.03,12.1 10.33,23.86 17.84,32.13z"/>
   <path class="fil8" d="M217.58 575.56c-27.95,-26.86 -50.99,-59.47 -68.42,-98.6 7.51,-8.27 13.8,-20.03 17.84,-32.13 29.52,-82.27 74,-134.04 161.78,-160.02 -37.74,53.11 -73.95,79.16 -82.07,190.72 -1.64,49.49 -11.35,82.83 -29.13,100.03z"/>
   <path class="fil9" d="M141.48 69.55c-0.34,-2.85 -0.27,-5.25 0.24,-7.22 0.5,-1.96 1.28,-3.49 2.35,-4.58 1.06,-1.09 2.42,-1.78 4.09,-2.05 2.42,-0.39 4.52,0.35 6.3,2.25 1.78,1.89 2.91,4.82 3.39,8.78 0.48,4 0.06,7.26 -1.28,9.77 -1.17,2.22 -2.97,3.53 -5.4,3.93 -2.44,0.4 -4.49,-0.27 -6.14,-2.01 -1.88,-1.99 -3.06,-4.95 -3.54,-8.87zm3.49 -0.74c0.33,2.75 1.03,4.74 2.1,5.97 1.07,1.23 2.26,1.73 3.59,1.52 1.34,-0.22 2.37,-1.08 3.08,-2.59 0.72,-1.51 0.9,-3.68 0.56,-6.5 -0.34,-2.77 -1.01,-4.75 -2.03,-5.94 -1.02,-1.19 -2.22,-1.67 -3.6,-1.44 -1.38,0.23 -2.43,1.08 -3.14,2.56 -0.71,1.48 -0.89,3.62 -0.55,6.43zm19.99 -5.05l-3.25 0.46 -0.35 -3.3c-0.2,-1.86 -0.14,-3.33 0.17,-4.4 0.31,-1.07 0.98,-1.96 1.99,-2.66l0.84 1.82c-0.6,0.39 -1.01,0.87 -1.24,1.44 -0.23,0.58 -0.31,1.34 -0.23,2.28l1.58 -0.23 0.49 4.59zm4.67 13.35l-0.4 -4.37 7.5 -16.67 -7.91 0.97 -0.37 -4.06 12.41 -1.52 0.34 3.77 -7.81 17.33 9.65 -1.18 0.37 4.05 -13.78 1.68zm14.88 -26.22l6.78 -0.83c1.85,-0.23 3.18,-0.19 3.96,0.12 0.79,0.3 1.48,0.92 2.09,1.85 0.61,0.93 0.97,2.02 1.08,3.28 0.1,1.16 -0.02,2.23 -0.38,3.22 -0.35,0.99 -0.87,1.75 -1.53,2.28 1.04,0.29 1.89,0.9 2.55,1.84 0.66,0.93 1.05,2.12 1.18,3.56 0.16,1.75 -0.07,3.27 -0.68,4.56 -0.61,1.3 -1.4,2.15 -2.36,2.55 -0.67,0.28 -2.25,0.57 -4.75,0.88l-5.76 0.7 -2.17 -24.02zm3.77 3.58l0.5 5.55 2.25 -0.28c1.36,-0.16 2.19,-0.3 2.5,-0.39 0.57,-0.18 1,-0.52 1.29,-1.03 0.29,-0.5 0.39,-1.15 0.32,-1.95 -0.06,-0.71 -0.25,-1.27 -0.56,-1.68 -0.31,-0.41 -0.66,-0.65 -1.05,-0.71 -0.39,-0.06 -1.49,0.02 -3.29,0.24l-1.98 0.24zm0.86 9.55l0.58 6.42 3.17 -0.39c1.39,-0.17 2.28,-0.37 2.66,-0.58 0.38,-0.22 0.68,-0.59 0.9,-1.12 0.23,-0.53 0.3,-1.18 0.23,-1.94 -0.07,-0.78 -0.27,-1.41 -0.6,-1.89 -0.34,-0.47 -0.75,-0.77 -1.24,-0.91 -0.49,-0.13 -1.47,-0.11 -2.93,0.07l-2.77 0.34zm16.06 8.89l-1.81 -24.06 12.6 -1.28 0.31 4.07 -9.18 0.93 0.4 5.34 8.53 -0.87 0.3 4.06 -8.53 0.87 0.49 6.54 9.49 -0.96 0.31 4.05 -12.91 1.31zm17.24 -1.99l-1.45 -24.09 3.42 -0.28 0.64 10.7 6.3 -11.26 4.62 -0.38 -5.84 9.9 7.64 14.16 -4.44 0.36 -5.36 -10.93 -2.54 4.26 0.44 7.28 -3.42 0.28zm18.37 -1.3l-1.09 -24.11 3.43 -0.21 1.09 24.12 -3.43 0.21zm6.83 -8.47l3.34 -0.67c0.52,3.06 1.82,4.53 3.92,4.4 1.04,-0.06 1.84,-0.43 2.4,-1.1 0.57,-0.67 0.83,-1.47 0.79,-2.4 -0.02,-0.55 -0.15,-1.01 -0.37,-1.38 -0.23,-0.37 -0.56,-0.67 -0.99,-0.89 -0.43,-0.22 -1.48,-0.57 -3.15,-1.05 -1.48,-0.42 -2.58,-0.92 -3.29,-1.48 -0.7,-0.56 -1.28,-1.32 -1.73,-2.28 -0.45,-0.96 -0.7,-2 -0.75,-3.13 -0.06,-1.31 0.14,-2.51 0.61,-3.6 0.47,-1.08 1.14,-1.92 2.02,-2.52 0.88,-0.59 1.99,-0.93 3.32,-1.01 2,-0.12 3.59,0.42 4.77,1.61 1.18,1.19 1.86,2.96 2.03,5.3l-3.43 0.42c-0.21,-1.28 -0.58,-2.17 -1.1,-2.65 -0.52,-0.48 -1.25,-0.7 -2.17,-0.64 -0.93,0.06 -1.63,0.32 -2.11,0.8 -0.48,0.48 -0.7,1.06 -0.67,1.72 0.03,0.66 0.28,1.2 0.76,1.62 0.47,0.42 1.54,0.85 3.19,1.29 1.76,0.48 3.03,1.01 3.83,1.61 0.8,0.59 1.43,1.39 1.88,2.38 0.45,0.99 0.71,2.21 0.78,3.66 0.09,2.09 -0.38,3.89 -1.43,5.38 -1.04,1.49 -2.75,2.31 -5.11,2.46 -4.17,0.25 -6.62,-2.36 -7.34,-7.85zm22.26 6.66l-0.6 -20.05 -5.06 0.2 -0.12 -4.08 13.53 -0.55 0.12 4.08 -5.05 0.2 0.6 20.05 -3.43 0.14zm10.77 -12.73c-0.04,-2.87 0.29,-5.25 0.99,-7.13 0.7,-1.87 1.64,-3.28 2.81,-4.21 1.16,-0.93 2.59,-1.42 4.27,-1.45 2.44,-0.05 4.44,0.99 6.01,3.12 1.57,2.13 2.38,5.2 2.44,9.2 0.06,4.04 -0.7,7.21 -2.29,9.52 -1.4,2.04 -3.32,3.08 -5.77,3.13 -2.46,0.05 -4.43,-0.9 -5.88,-2.86 -1.66,-2.24 -2.52,-5.34 -2.58,-9.31zm3.54 -0.24c0.04,2.78 0.53,4.85 1.45,6.22 0.93,1.37 2.06,2.04 3.4,2.02 1.35,-0.03 2.46,-0.74 3.33,-2.14 0.87,-1.4 1.28,-3.52 1.24,-6.38 -0.04,-2.8 -0.5,-4.86 -1.39,-6.18 -0.89,-1.32 -2.03,-1.97 -3.43,-1.94 -1.4,0.03 -2.53,0.73 -3.39,2.1 -0.86,1.37 -1.26,3.46 -1.22,6.3zm17.21 11.51l0 -24.15 3.35 0 6.98 16.13 0 -16.13 3.21 0 0 24.15 -3.46 0 -6.87 -15.74 0 15.74 -3.2 0zm30.39 -0.34l0 -24.15 7.25 0c1.85,0 3.18,0.22 3.97,0.65 0.79,0.43 1.45,1.19 1.96,2.26 0.51,1.07 0.76,2.35 0.76,3.85 0,1.89 -0.39,3.41 -1.17,4.56 -0.78,1.15 -1.89,1.88 -3.32,2.17 0.74,0.61 1.34,1.29 1.83,2.02 0.48,0.73 1.14,2.04 1.97,3.93l2.07 4.71 -4.1 0 -2.49 -5.26c-0.9,-1.9 -1.51,-3.09 -1.83,-3.57 -0.32,-0.48 -0.66,-0.81 -1.02,-0.99 -0.36,-0.18 -0.94,-0.27 -1.73,-0.27l-0.71 0 0 10.08 -3.44 0zm3.44 -13.94l2.55 0c1.56,0 2.55,-0.08 2.98,-0.24 0.42,-0.16 0.77,-0.48 1.03,-0.97 0.27,-0.48 0.4,-1.12 0.4,-1.93 0,-0.77 -0.13,-1.39 -0.4,-1.85 -0.27,-0.47 -0.62,-0.79 -1.07,-0.97 -0.32,-0.12 -1.26,-0.18 -2.8,-0.18l-2.69 0 0 6.13zm15.07 13.97l0.36 -24.15 12.65 0.26 -0.06 4.08 -9.21 -0.19 -0.08 5.35 8.56 0.17 -0.06 4.07 -8.56 -0.17 -0.1 6.57 9.53 0.19 -0.06 4.07 -12.96 -0.26zm16.44 -7.2l3.37 -0.4c0.33,3.09 1.55,4.66 3.65,4.71 1.04,0.02 1.86,-0.28 2.46,-0.9 0.6,-0.62 0.91,-1.4 0.93,-2.33 0.01,-0.55 -0.09,-1.02 -0.29,-1.41 -0.2,-0.39 -0.51,-0.71 -0.93,-0.97 -0.42,-0.25 -1.45,-0.69 -3.08,-1.3 -1.45,-0.54 -2.52,-1.13 -3.19,-1.74 -0.67,-0.62 -1.2,-1.43 -1.59,-2.42 -0.39,-0.99 -0.57,-2.05 -0.56,-3.18 0.02,-1.32 0.3,-2.49 0.83,-3.54 0.53,-1.04 1.26,-1.83 2.17,-2.35 0.92,-0.52 2.04,-0.76 3.37,-0.74 2,0.04 3.56,0.7 4.66,1.99 1.11,1.28 1.67,3.1 1.7,5.45l-3.45 0.14c-0.13,-1.3 -0.45,-2.21 -0.94,-2.74 -0.49,-0.52 -1.21,-0.79 -2.13,-0.81 -0.92,-0.02 -1.64,0.19 -2.15,0.63 -0.51,0.44 -0.77,1 -0.78,1.66 -0.01,0.66 0.21,1.22 0.65,1.68 0.45,0.46 1.49,0.97 3.11,1.54 1.72,0.62 2.96,1.26 3.72,1.91 0.76,0.66 1.34,1.5 1.73,2.52 0.39,1.03 0.58,2.26 0.56,3.71 -0.03,2.09 -0.61,3.85 -1.74,5.25 -1.13,1.4 -2.88,2.08 -5.24,2.04 -4.18,-0.09 -6.46,-2.89 -6.85,-8.43zm17.66 8.58l0.72 -24.14 5.53 0.23c2.06,0.08 3.4,0.25 4.03,0.51 1,0.42 1.81,1.25 2.43,2.49 0.62,1.24 0.9,2.82 0.84,4.75 -0.05,1.74 -0.38,3.2 -0.98,4.35 -0.6,1.16 -1.34,1.96 -2.2,2.4 -0.86,0.44 -2.33,0.62 -4.41,0.54l-2.25 -0.09 -0.27 9.1 -3.43 -0.14zm4.03 -19.91l-0.21 6.85 1.9 0.08c1.28,0.05 2.15,-0.02 2.61,-0.21 0.46,-0.19 0.85,-0.55 1.16,-1.08 0.31,-0.53 0.48,-1.19 0.5,-1.98 0.02,-0.8 -0.11,-1.48 -0.39,-2.05 -0.29,-0.56 -0.65,-0.94 -1.09,-1.15 -0.44,-0.21 -1.37,-0.34 -2.81,-0.39l-1.67 -0.07zm14.23 -3.5l3.42 0.21 -0.59 13.06c-0.09,2.03 -0.11,3.35 -0.05,3.97 0.1,1.07 0.42,1.92 0.97,2.53 0.55,0.61 1.28,0.95 2.22,1.01 0.79,0.05 1.45,-0.12 1.97,-0.5 0.52,-0.38 0.89,-0.93 1.1,-1.65 0.22,-0.72 0.38,-2.28 0.49,-4.68l0.6 -13.34 3.44 0.21 -0.57 12.67c-0.15,3.24 -0.4,5.57 -0.76,6.99 -0.37,1.43 -1.09,2.55 -2.17,3.38 -1.08,0.83 -2.48,1.2 -4.19,1.09 -1.77,-0.11 -3.14,-0.56 -4.1,-1.37 -0.96,-0.8 -1.64,-1.88 -2.03,-3.26 -0.39,-1.37 -0.5,-3.86 -0.34,-7.47l0.58 -12.86zm18.9 1.07l6.8 0.55c1.86,0.15 3.15,0.46 3.89,0.91 0.73,0.46 1.32,1.2 1.78,2.24 0.46,1.04 0.65,2.19 0.57,3.45 -0.07,1.16 -0.36,2.19 -0.86,3.09 -0.5,0.9 -1.12,1.55 -1.85,1.94 0.98,0.5 1.73,1.27 2.24,2.33 0.51,1.05 0.72,2.3 0.63,3.75 -0.1,1.75 -0.56,3.2 -1.36,4.35 -0.8,1.15 -1.7,1.83 -2.71,2.04 -0.7,0.14 -2.3,0.11 -4.81,-0.1l-5.78 -0.47 1.45 -24.09zm3.18 4.29l-0.34 5.57 2.26 0.19c1.36,0.11 2.2,0.15 2.52,0.12 0.59,-0.06 1.07,-0.31 1.42,-0.75 0.36,-0.44 0.56,-1.06 0.61,-1.86 0.04,-0.71 -0.06,-1.3 -0.3,-1.77 -0.24,-0.47 -0.55,-0.77 -0.93,-0.91 -0.38,-0.14 -1.47,-0.28 -3.28,-0.43l-1.98 -0.16zm-0.58 9.58l-0.39 6.44 3.18 0.26c1.39,0.11 2.29,0.1 2.7,-0.03 0.41,-0.14 0.76,-0.45 1.06,-0.93 0.3,-0.47 0.47,-1.1 0.52,-1.86 0.05,-0.79 -0.06,-1.45 -0.31,-1.98 -0.26,-0.53 -0.62,-0.91 -1.08,-1.14 -0.46,-0.23 -1.43,-0.41 -2.9,-0.52l-2.78 -0.23zm14.55 11.91l1.44 -23.89 3.42 0.28 -1.19 19.83 8.55 0.69 -0.24 4.06 -11.97 -0.97zm15.67 1.7l1.81 -24.06 3.42 0.35 -1.81 24.06 -3.42 -0.35zm8.08 0.72l2.17 -24.02 3.41 0.42 -0.96 10.67 7.89 -9.82 4.61 0.56 -7.24 8.57 5.4 15.48 -4.43 -0.54 -3.65 -11.84 -3.14 3.68 -0.65 7.25 -3.42 -0.42zm33.75 4.22l-3.72 -0.46 -0.98 -5.64 -6.77 -0.83 -1.89 5.29 -3.64 -0.45 8.77 -23.21 3.63 0.44 4.61 24.84zm-5.44 -10.27l-1.52 -9.19 -3.1 8.63 4.62 0.56zm8.34 2.88l3.38 0.02c0.05,3.12 1.12,4.82 3.2,5.12 1.03,0.15 1.87,-0.05 2.53,-0.59 0.66,-0.54 1.03,-1.28 1.13,-2.2 0.06,-0.54 0.01,-1.03 -0.16,-1.44 -0.16,-0.41 -0.45,-0.77 -0.84,-1.08 -0.4,-0.3 -1.38,-0.86 -2.94,-1.67 -1.4,-0.72 -2.41,-1.43 -3.02,-2.12 -0.61,-0.7 -1.07,-1.56 -1.36,-2.6 -0.3,-1.03 -0.39,-2.11 -0.27,-3.23 0.14,-1.31 0.52,-2.45 1.14,-3.42 0.62,-0.97 1.41,-1.66 2.37,-2.07 0.96,-0.4 2.1,-0.51 3.42,-0.32 1.99,0.28 3.48,1.13 4.46,2.54 0.98,1.41 1.38,3.29 1.2,5.63l-3.44 -0.28c-0.02,-1.3 -0.24,-2.25 -0.69,-2.84 -0.44,-0.58 -1.13,-0.94 -2.05,-1.07 -0.92,-0.13 -1.65,-0.01 -2.2,0.37 -0.54,0.38 -0.85,0.9 -0.92,1.56 -0.07,0.66 0.1,1.24 0.5,1.75 0.41,0.51 1.39,1.15 2.95,1.91 1.66,0.83 2.83,1.61 3.53,2.35 0.7,0.75 1.2,1.65 1.49,2.72 0.3,1.07 0.37,2.32 0.22,3.76 -0.22,2.08 -0.96,3.75 -2.21,5.01 -1.25,1.26 -3.05,1.72 -5.4,1.39 -4.15,-0.59 -6.16,-3.66 -6.05,-9.21zm17.14 10.64l2.89 -23.91 3.4 0.56 -2.89 23.91 -3.4 -0.56z"/>
   <path class="fil10" d="M186.95 114.17l-5.43 0.76 -3.13 -6.55 -9.88 1.39 -1.07 7.14 -5.31 0.75 5.39 -31.55 5.29 -0.74 14.15 28.8zm-10.88 -10.65l-4.98 -10.73 -1.78 11.67 6.75 -0.95zm12.08 -20.28l9.16 -0.96c2.32,-0.24 4.09,-0.17 5.32,0.23 1.23,0.39 2.41,1.15 3.54,2.27 1.12,1.12 2.06,2.64 2.84,4.53 0.77,1.9 1.31,4.3 1.61,7.21 0.28,2.62 0.22,4.93 -0.17,6.93 -0.39,2 -0.98,3.61 -1.77,4.84 -0.78,1.23 -1.8,2.2 -3.03,2.9 -1.22,0.71 -2.85,1.17 -4.88,1.38l-9.43 0.99 -3.19 -30.32zm5.54 4.61l2.11 20.08 3.76 -0.39c1.62,-0.17 2.76,-0.44 3.46,-0.82 0.7,-0.38 1.24,-0.9 1.63,-1.56 0.4,-0.65 0.68,-1.67 0.85,-3.02 0.16,-1.36 0.13,-3.12 -0.1,-5.28 -0.24,-2.24 -0.58,-4 -1.03,-5.27 -0.45,-1.26 -1.04,-2.23 -1.77,-2.91 -0.73,-0.67 -1.58,-1.08 -2.54,-1.22 -0.72,-0.11 -2.09,-0.05 -4.1,0.16l-2.28 0.24zm24.54 22.39l-2.11 -30.17 5.02 -0.35 1.75 25.04 12.53 -0.87 0.36 5.12 -17.55 1.23zm22.98 -1.68l-2.13 -30.42 5.02 -0.35 2.13 30.42 -5.02 0.35zm18.37 -1.16l-0.67 -12.81 -10.06 -17.16 5.9 -0.31 6.51 11.74 5.14 -12.35 5.79 -0.3 -8.26 18.16 0.67 12.77 -5.02 0.27zm38 -1.68l-5.49 0.19 -2.42 -6.85 -9.97 0.35 -1.82 6.99 -5.37 0.19 8.66 -30.81 5.34 -0.19 11.06 30.12zm-9.71 -11.73l-3.82 -11.19 -2.99 11.43 6.81 -0.24zm36.92 11.33l-8.92 -30.49 5.47 0 6.33 22.57 6.11 -22.57 5.37 0 -8.95 30.49 -5.4 0zm38.83 0l-5.49 0 -2.18 -6.92 -9.98 0 -2.06 6.92 -5.37 0 9.73 -30.49 5.34 0 10 30.49zm-9.29 -12.06l-3.43 -11.32 -3.39 11.32 6.82 0zm11.73 12.5l0.2 -5.55 13.82 -19.31 -11.66 -0.41 0.18 -5.16 18.29 0.64 -0.17 4.78 -14.39 20.08 14.22 0.5 -0.18 5.13 -20.31 -0.71zm25.3 0.92l1.07 -30.47 5.03 0.18 -1.06 30.47 -5.03 -0.18zm11.81 0.52l2.13 -30.41 10.61 0.74c2.71,0.19 4.63,0.6 5.75,1.23 1.12,0.63 2.02,1.64 2.67,3.04 0.65,1.4 0.91,3.04 0.78,4.92 -0.17,2.38 -0.87,4.26 -2.11,5.63 -1.24,1.37 -2.93,2.17 -5.06,2.4 1.03,0.85 1.86,1.76 2.5,2.73 0.64,0.97 1.49,2.69 2.54,5.15l2.61 6.14 -6 -0.42 -3.19 -6.87c-1.15,-2.49 -1.94,-4.05 -2.36,-4.68 -0.43,-0.63 -0.9,-1.08 -1.41,-1.35 -0.51,-0.27 -1.34,-0.44 -2.51,-0.52l-1.04 -0.07 -0.89 12.7 -5.02 -0.35zm6.25 -17.2l3.73 0.26c2.28,0.16 3.74,0.16 4.37,0.01 0.64,-0.16 1.17,-0.53 1.6,-1.11 0.43,-0.58 0.68,-1.38 0.75,-2.39 0.07,-0.97 -0.08,-1.76 -0.42,-2.37 -0.35,-0.62 -0.84,-1.06 -1.49,-1.33 -0.46,-0.18 -1.82,-0.36 -4.07,-0.52l-3.94 -0.28 -0.54 7.72zm21.02 19.34l2.11 -30.16 5.02 0.35 -1.75 25.04 12.53 0.88 -0.36 5.13 -17.55 -1.23zm22.98 2.19l3.19 -30.32 5.01 0.53 -3.19 30.32 -5.01 -0.53zm24.29 -8.37l0.63 -5.1 10.79 1.33 -1.48 12.05c-1.25,1.14 -2.92,2.05 -5.03,2.73 -2.11,0.68 -4.17,0.9 -6.18,0.65 -2.45,-0.3 -4.53,-1.17 -6.26,-2.6 -1.72,-1.44 -2.98,-3.42 -3.78,-5.96 -0.8,-2.53 -1,-5.43 -0.6,-8.67 0.41,-3.33 1.31,-6.11 2.71,-8.34 1.39,-2.23 3.05,-3.83 4.96,-4.78 1.91,-0.96 4.1,-1.28 6.56,-0.97 2.96,0.36 5.24,1.4 6.84,3.13 1.6,1.72 2.47,4.07 2.62,7.05l-5.09 0.53c-0.18,-1.6 -0.72,-2.87 -1.61,-3.82 -0.89,-0.94 -2.02,-1.5 -3.4,-1.67 -2.13,-0.26 -3.96,0.36 -5.48,1.85 -1.52,1.5 -2.49,3.94 -2.91,7.34 -0.45,3.65 -0.08,6.51 1.12,8.59 1.03,1.78 2.58,2.81 4.68,3.06 0.98,0.12 2.02,0.02 3.13,-0.31 1.11,-0.34 2.13,-0.85 3.05,-1.55l0.47 -3.84 -5.74 -0.7zm16.04 13.6l4.77 -30.11 4.97 0.79 -4.77 30.11 -4.97 -0.79z"/>
   <path class="fil11" d="M486.28 526.74c-10.22,15.19 -21.55,29.09 -33.9,41.79 -18.61,-16.93 -27.57,-42.49 -29.12,-102.45 -9.63,-90.89 -31.92,-123.34 -66.13,-162.97 49.57,44.23 82.37,77.53 95.65,151.75 3.16,38.78 15.99,60.25 33.5,71.87z"/>
   <path class="fil11" d="M509.9 485.25c-6.03,12.64 -12.67,24.57 -19.89,35.81 -22.17,-16.78 -26.38,-37 -31.33,-69.74 -4.97,-34.24 -17.86,-85.02 -83.84,-140.53 36.38,12.43 73.59,53.12 95.65,92.7 16.67,36.55 20.99,65.41 39.41,81.75z"/>
   <path class="fil12" d="M155.3 185.1c1.68,-2.07 3.32,-4.16 4.92,-6.28l120.94 -50.89c16.54,-0.79 33.44,-1.19 50.34,-1.18 16.89,0.01 33.78,0.42 50.31,1.22l120.84 50.85c1.6,2.11 3.24,4.21 4.92,6.28l-138.09 -56.3 149.62 87.51c-0.6,1.04 -1.2,2.08 -1.8,3.12l-150.59 -85.82 136.92 106.29c-0.73,0.95 -1.46,1.91 -2.2,2.86l-138.1 -104.75 121.87 123.25c-0.85,0.85 -1.7,1.7 -2.55,2.55l-123.25 -121.88 104.75 138.1c-0.96,0.73 -1.91,1.46 -2.86,2.2l-106.29 -136.92 85.82 150.59c-1.04,0.6 -2.08,1.2 -3.12,1.8l-87.5 -149.62 65.43 160.51c-1.11,0.46 -2.22,0.92 -3.33,1.38l-67.23 -159.76 43.92 167.67c-1.16,0.31 -2.32,0.62 -3.48,0.93l-45.8 -167.17 21.66 171.97c-1.19,0.16 -2.38,0.31 -3.57,0.47l-23.59 -171.72 -0.97 173.33c-1.2,0 -2.4,0 -3.6,0l-0.97 -173.33 -23.59 171.72c-1.19,-0.16 -2.38,-0.31 -3.57,-0.47l21.66 -171.98 -45.8 167.18c-1.16,-0.31 -2.32,-0.62 -3.48,-0.93l43.92 -167.68 -67.23 159.77c-1.11,-0.46 -2.22,-0.92 -3.33,-1.38l65.43 -160.51 -87.5 149.62c-1.04,-0.6 -2.08,-1.2 -3.12,-1.8l85.82 -150.6 -106.29 136.92c-0.95,-0.73 -1.91,-1.46 -2.86,-2.19l104.74 -138.11 -123.25 121.88c-0.85,-0.85 -1.7,-1.7 -2.55,-2.55l121.87 -123.25 -138.1 104.75c-0.73,-0.95 -1.46,-1.91 -2.2,-2.86l136.92 -106.29 -150.59 85.82c-0.6,-1.04 -1.2,-2.08 -1.8,-3.12l149.62 -87.51 -138.09 56.3zm21.33 -31.39c0.95,-1.7 1.88,-3.41 2.79,-5.14l66.83 -18.31c8.92,-0.77 18.03,-1.42 27.27,-1.93l-96.89 25.38zm212.93 -25.33c9.27,0.52 18.4,1.18 27.34,1.95l66.56 18.23c0.91,1.73 1.84,3.44 2.79,5.14l-96.69 -25.33z"/>
   <path class="fil11" d="M210.5 568.54c-12.36,-12.7 -23.68,-26.6 -33.9,-41.79 17.51,-11.62 30.34,-33.09 33.5,-71.87 13.28,-74.22 46.09,-107.52 95.65,-151.75 -34.21,39.63 -56.5,72.08 -66.13,162.97 -1.55,59.96 -10.51,85.52 -29.12,102.45z"/>
   <path class="fil11" d="M172.87 521.07c-7.22,-11.25 -13.86,-23.18 -19.89,-35.81 18.42,-16.34 22.73,-45.21 39.4,-81.76 22.06,-39.58 59.27,-80.27 95.65,-92.7 -65.98,55.51 -78.88,106.29 -83.84,140.53 -4.95,32.74 -9.16,52.96 -31.32,69.74z"/>
   <path class="fil13" d="M331.44 179.24c3.64,0 6.61,2.97 6.61,6.61 0,2.84 -1.82,5.28 -4.35,6.21l0.79 2.4c0,6.48 0,12.96 0,19.44 2.6,1.28 4,4.04 4.59,7.83 0,4.91 0,9.81 0,14.72 -0.24,2.91 -0.95,5.52 -2.7,7.42 0,1.49 0,2.98 0,4.46 2.43,0.89 4.55,2.42 6.17,4.38 7.55,-4.08 13.95,-6.29 19.34,-6.14 16.41,0.15 23.91,11.32 38.74,14.98 9.96,2.77 19.31,3.22 26.11,1.72 -1.11,-1.95 -1.74,-4.21 -1.74,-6.6 0,-7.41 6.04,-13.46 13.46,-13.46 7.41,0 13.46,6.04 13.46,13.46 0,7.39 -3.69,12.07 -9.15,14.94l39.08 96.21 16.57 0c-10.57,15.06 -25.87,27.05 -58.04,28.04 -27.39,0.07 -47.51,-9.15 -60.35,-27.66l15.07 0 37.83 -93.45c-11.15,1.93 -24.36,0.18 -31.21,-1.44 -9.8,-1.36 -24.12,-6.48 -36.18,-9.72 -7,-1.06 -13.83,0.76 -20.55,3.15 -1.45,4 -4.62,7.18 -8.6,8.64 0,17.89 0,35.79 0,53.68 11.11,1.19 8.51,16.23 0,17.82 4.03,2.8 6.51,7.17 7.42,13.09l0 29.02c-0.28,17.42 -2.34,32.62 -5.4,46.57l0 10.67 75.6 0 0 6.89 13.77 0 0 4.86 16.34 0 0 7.3 -112.6 0 -0.13 0 -112.6 0 0 -7.3 16.34 0 0 -4.86 13.77 0 0 -6.89 75.59 0 0 -10.67c-3.06,-13.95 -5.12,-29.15 -5.4,-46.57l0 -29.02c0.92,-5.93 3.39,-10.29 7.43,-13.09 -8.51,-1.59 -11.11,-16.63 0,-17.82 0,-17.89 0,-35.79 0,-53.68 -3.99,-1.46 -7.16,-4.64 -8.61,-8.64 -6.73,-2.39 -13.55,-4.22 -20.55,-3.15 -12.06,3.24 -26.38,8.36 -36.18,9.72 -6.85,1.62 -20.06,3.37 -31.21,1.44l37.83 93.45 15.07 0c-12.84,18.51 -32.96,27.73 -60.35,27.66 -32.18,-0.99 -47.48,-12.98 -58.05,-28.04l16.57 0 39.08 -96.21c-5.46,-2.87 -9.15,-7.55 -9.15,-14.94 0,-7.41 6.05,-13.46 13.46,-13.46 7.41,0 13.46,6.04 13.46,13.46 0,2.4 -0.63,4.65 -1.74,6.6 6.8,1.51 16.15,1.05 26.11,-1.72 14.83,-3.67 22.34,-14.83 38.74,-14.98 5.39,-0.15 11.79,2.06 19.34,6.14 1.62,-1.96 3.75,-3.49 6.18,-4.38 0,-1.49 0,-2.98 0,-4.46 -1.75,-1.91 -2.46,-4.51 -2.7,-7.42 0,-4.91 0,-9.81 0,-14.72 0.59,-3.78 1.99,-6.55 4.59,-7.83 0,-6.48 0,-12.96 0,-19.44l0.79 -2.4c-2.53,-0.92 -4.35,-3.36 -4.35,-6.21 0,-3.64 2.97,-6.61 6.61,-6.61zm143.06 188.58l-33.13 -83.58 0 83.58 33.13 0zm-71.71 0l33.13 -83.58 0 83.58 -33.13 0zm-214.41 0l33.13 -83.58 0 83.58 -33.13 0zm71.71 0l-33.13 -83.58 0 83.58 33.13 0z"/>
   <path class="fil14" d="M254.35 670.38c12.47,-35.64 -30.12,-63.95 -29.21,-64.88 1.01,-0.92 -26.07,34.21 29.21,64.88z"/>
   <path class="fil15" d="M242.62 670.29c-36.61,23.44 -87.4,-21.94 -85.92,-22.78 0.96,-0.75 36.21,-13.66 85.92,22.78z"/>
   <path class="fil16" d="M408.43 670.38c-12.47,-35.64 30.12,-63.95 29.21,-64.88 -1.01,-0.92 26.07,34.21 -29.21,64.88z"/>
   <path class="fil17" d="M420.15 670.29c36.61,23.44 87.4,-21.94 85.92,-22.78 -0.96,-0.75 -36.21,-13.66 -85.92,22.78z"/>
   <path class="fil18" d="M42.5 524.82c22,44.85 67.39,59.21 91.14,41.78 -0.01,-0.1 -0.01,-0.2 -0.02,-0.3 -0.03,0.64 -40.75,-13.79 -48.74,-20.23 -0.05,0.59 39.36,14.99 48.74,20.23 0,-0.03 -0,-0.05 -0,-0.08 -27.77,-32.73 -64.45,-55.77 -91.12,-41.4z"/>
   <path class="fil19" d="M20.7 469.18c17.26,43.74 58.66,59.88 82.64,44.59 0,-0.09 0,-0.19 0.01,-0.28 -0.07,0.58 -37.27,-15.43 -44.31,-21.95 -0.08,0.53 35.93,16.39 44.31,21.95 0,-0.03 0,-0.05 0,-0.08 -23.37,-32.89 -56.35,-56.68 -82.65,-44.23z"/>
   <path class="fil20" d="M5.95 410.25c10.7,43.14 47.23,62.64 71.69,50.62 0.02,-0.09 0.03,-0.18 0.04,-0.27 -0.13,0.52 -32.88,-18.5 -38.65,-25.37 -0.14,0.48 31.54,19.17 38.65,25.37 0.01,-0.03 0.01,-0.05 0.01,-0.08 -17.58,-33.76 -45.58,-59.62 -71.75,-50.27z"/>
   <path class="fil21" d="M1.8 355.57c4.05,42.06 35.26,64.63 59.75,56.09 0.02,-0.09 0.06,-0.17 0.08,-0.25 -0.2,0.46 -28.04,-21.34 -32.46,-28.49 -0.2,0.42 26.72,21.76 32.46,28.49 0.01,-0.02 0.01,-0.05 0.02,-0.07 -11.63,-34.14 -34.21,-61.84 -59.85,-55.77z"/>
   <path class="fil22" d="M0 302.61c-0.2,40.46 26.64,64.08 50.29,57.69 0.03,-0.08 0.06,-0.16 0.09,-0.23 -0.22,0.41 -24.06,-22.38 -27.49,-29.5 -0.22,0.38 22.79,22.63 27.49,29.5 0.01,-0.02 0.02,-0.04 0.03,-0.06 -7.53,-33.53 -25.97,-61.61 -50.42,-57.39z"/>
   <path class="fil23" d="M7.05 250.2c-6.35,38.51 14.7,64.21 37.45,61.17 0.04,-0.07 0.08,-0.14 0.13,-0.21 -0.27,0.35 -18.69,-24.34 -20.77,-31.54 -0.25,0.32 17.51,24.39 20.77,31.54 0.01,-0.02 0.02,-0.04 0.03,-0.05 -1.75,-32.93 -14.44,-62.03 -37.61,-60.9z"/>
   <path class="fil24" d="M21.13 200.07c-10.98,36.43 4.9,63.02 26.2,62.41 0.05,-0.06 0.1,-0.12 0.14,-0.19 -0.28,0.3 -13.89,-25.24 -14.83,-32.34 -0.28,0.28 12.81,25.14 14.83,32.34 0.01,-0.02 0.03,-0.03 0.04,-0.05 2.85,-31.84 -4.9,-61.16 -26.39,-62.17z"/>
   <path class="fil25" d="M41.55 153.46c-15.47,34.06 -4.94,61.22 14.58,63 0.05,-0.06 0.1,-0.11 0.16,-0.17 -0.3,0.26 -8.87,-25.83 -8.67,-32.78 -0.29,0.24 7.93,25.61 8.67,32.78 0.02,-0.01 0.03,-0.03 0.04,-0.04 7.43,-30.41 4.75,-59.68 -14.78,-62.79z"/>
   <path class="fil26" d="M67.03 109c-19.28,31.54 -13.86,58.76 3.61,62.56 0.06,-0.05 0.12,-0.1 0.17,-0.14 -0.31,0.21 -4.07,-25.95 -2.83,-32.67 -0.29,0.19 3.27,25.64 2.83,32.67 0.02,-0.01 0.03,-0.03 0.05,-0.04 11.49,-28.71 13.56,-57.53 -3.83,-62.38z"/>
   <path class="fil27" d="M150.19 480.93c14.5,33.16 10.19,69.17 -15.38,84.93 -0.1,-0.04 -0.2,-0.08 -0.29,-0.12 -0.64,-0.25 3.75,-38.74 4.43,-46.77 -0.54,-0.29 -7.82,36.3 -4.43,46.77 -0.03,-0.02 -0.05,-0.02 -0.08,-0.03 -24.31,-37.17 -13.67,-77.4 15.75,-84.77z"/>
   <path class="fil28" d="M125.94 432.46c11.3,32.73 4.14,67.05 -21.4,80.65 -0.09,-0.04 -0.17,-0.09 -0.26,-0.13 -0.55,-0.25 6.85,-36.87 8.09,-44.55 -0.46,-0.29 -10.34,34.37 -8.09,44.55 -0.02,-0.01 -0.05,-0.02 -0.08,-0.04 -19.69,-36.85 -6.66,-74.84 21.73,-80.48z"/>
   <path class="fil29" d="M109.14 385.42c6.61,32.61 -4.53,64.67 -30.23,74.94 -0.08,-0.05 -0.15,-0.1 -0.23,-0.16 -0.46,-0.28 11.19,-34.41 13.28,-41.66 -0.38,-0.3 -14.04,31.76 -13.28,41.66 -0.02,-0.01 -0.04,-0.03 -0.06,-0.04 -13.61,-37.07 3.21,-72.08 30.52,-74.74z"/>
   <path class="fil30" d="M101.11 339.75c1.38,32.16 -13.78,61.33 -39.23,67.85 -0.06,-0.06 -0.13,-0.12 -0.19,-0.18 -0.37,-0.31 15.57,-31.34 18.58,-38.04 -0.3,-0.32 -17.76,28.57 -18.58,38.04 -0.02,-0.02 -0.04,-0.03 -0.05,-0.05 -7.06,-36.85 13.69,-68.3 39.47,-67.63z"/>
   <path class="fil31" d="M93.96 297.05c-1.41,31.28 -18.05,58.36 -42.36,63 -0.06,-0.06 -0.11,-0.12 -0.16,-0.18 -0.31,-0.29 17.22,-29.08 20.58,-35.38 -0.25,-0.29 -19,26.4 -20.58,35.38 -0.01,-0.02 -0.03,-0.03 -0.05,-0.05 -3.39,-35.66 18.57,-64.81 42.57,-62.77z"/>
   <path class="fil32" d="M94.51 256.11c-6.14,30.06 -25.63,53.86 -48.72,55.16 -0.04,-0.07 -0.08,-0.13 -0.12,-0.19 -0.24,-0.29 20.33,-25.58 24.4,-31.25 -0.18,-0.28 -21.56,22.94 -24.4,31.25 -0.01,-0.02 -0.02,-0.04 -0.03,-0.05 2.36,-34.36 27.06,-59.73 48.87,-54.92z"/>
   <path class="fil33" d="M100.89 213.83c-9.79,28.77 -30.9,49.77 -52.29,48.7 -0.03,-0.06 -0.06,-0.13 -0.09,-0.2 -0.18,-0.27 22.14,-22.61 26.65,-27.75 -0.13,-0.26 -22.92,20.07 -26.65,27.75 -0.01,-0.02 -0.02,-0.03 -0.02,-0.05 6.8,-32.74 32.97,-55.09 52.4,-48.44z"/>
   <path class="fil34" d="M112.58 174.81c-13.42,27.19 -35.89,45.22 -55.24,41.83 -0.02,-0.06 -0.03,-0.13 -0.05,-0.2 -0.14,-0.25 23.64,-19.47 28.56,-24.02 -0.09,-0.24 -24.01,17.06 -28.56,24.02 -0,-0.02 -0.01,-0.04 -0.02,-0.06 11.14,-30.79 38.51,-49.96 55.31,-41.58z"/>
   <path class="fil35" d="M128.72 136.55c-16.6,25.47 -39.88,40.65 -56.95,35.34 -0.01,-0.06 -0.01,-0.13 -0.01,-0.2 -0.09,-0.23 24.55,-16.46 29.77,-20.46 -0.06,-0.22 -24.56,14.22 -29.77,20.46 0,-0.02 -0,-0.03 -0.01,-0.05 14.9,-28.64 42.9,-44.83 56.97,-35.08z"/>
   <path class="fil36" d="M132.04 85.19c-7.53,29.18 -24.79,50.83 -42.82,51.25 -0.03,-0.06 -0.05,-0.12 -0.08,-0.18 -0.16,-0.19 18.06,-23.25 21.73,-28.66 -0.13,-0.18 -18.79,21.15 -21.73,28.66 -0,-0.02 -0.01,-0.03 -0.02,-0.05 4.86,-31.62 26.3,-55.71 42.92,-51.02z"/>
   <path class="fil37" d="M620.3 524.82c-22,44.85 -67.39,59.21 -91.14,41.78 0.01,-0.1 0.01,-0.2 0.02,-0.3 0.03,0.64 40.75,-13.79 48.74,-20.23 0.05,0.59 -39.36,14.99 -48.74,20.23 0,-0.03 0,-0.05 0,-0.08 27.77,-32.73 64.45,-55.77 91.12,-41.4z"/>
   <path class="fil38" d="M642.1 469.18c-17.26,43.74 -58.66,59.88 -82.64,44.59 0,-0.09 -0,-0.19 -0.01,-0.28 0.07,0.58 37.27,-15.43 44.31,-21.95 0.08,0.53 -35.93,16.39 -44.31,21.95 -0,-0.03 -0,-0.05 -0,-0.08 23.37,-32.89 56.35,-56.68 82.65,-44.23z"/>
   <path class="fil39" d="M656.85 410.25c-10.7,43.14 -47.23,62.64 -71.69,50.62 -0.02,-0.09 -0.03,-0.18 -0.04,-0.27 0.13,0.52 32.88,-18.5 38.65,-25.37 0.14,0.48 -31.54,19.17 -38.65,25.37 -0.01,-0.03 -0.01,-0.05 -0.01,-0.08 17.58,-33.76 45.58,-59.62 71.75,-50.27z"/>
   <path class="fil40" d="M661 355.57c-4.05,42.06 -35.26,64.63 -59.75,56.09 -0.02,-0.09 -0.06,-0.17 -0.08,-0.25 0.2,0.46 28.04,-21.34 32.46,-28.49 0.2,0.42 -26.72,21.76 -32.46,28.49 -0.01,-0.02 -0.01,-0.05 -0.02,-0.07 11.63,-34.14 34.21,-61.84 59.85,-55.77z"/>
   <path class="fil41" d="M662.8 302.61c0.2,40.46 -26.64,64.08 -50.29,57.69 -0.03,-0.08 -0.06,-0.16 -0.09,-0.23 0.22,0.41 24.06,-22.38 27.49,-29.5 0.22,0.38 -22.79,22.63 -27.49,29.5 -0.01,-0.02 -0.02,-0.04 -0.03,-0.06 7.53,-33.53 25.97,-61.61 50.42,-57.39z"/>
   <path class="fil42" d="M655.75 250.2c6.35,38.51 -14.7,64.21 -37.45,61.17 -0.04,-0.07 -0.08,-0.14 -0.13,-0.21 0.27,0.35 18.69,-24.34 20.77,-31.54 0.25,0.32 -17.51,24.39 -20.77,31.54 -0.01,-0.02 -0.02,-0.04 -0.03,-0.05 1.75,-32.93 14.44,-62.03 37.61,-60.9z"/>
   <path class="fil43" d="M641.67 200.07c10.98,36.43 -4.9,63.02 -26.2,62.41 -0.05,-0.06 -0.1,-0.12 -0.14,-0.19 0.28,0.3 13.89,-25.24 14.83,-32.34 0.28,0.28 -12.81,25.14 -14.83,32.34 -0.01,-0.02 -0.03,-0.03 -0.04,-0.05 -2.85,-31.84 4.9,-61.16 26.39,-62.17z"/>
   <path class="fil44" d="M621.25 153.46c15.47,34.06 4.94,61.22 -14.58,63 -0.05,-0.06 -0.1,-0.11 -0.16,-0.17 0.3,0.26 8.87,-25.83 8.67,-32.78 0.29,0.24 -7.93,25.61 -8.67,32.78 -0.02,-0.01 -0.03,-0.03 -0.04,-0.04 -7.43,-30.41 -4.75,-59.68 14.78,-62.79z"/>
   <path class="fil45" d="M595.77 109c19.28,31.54 13.86,58.76 -3.61,62.56 -0.06,-0.05 -0.12,-0.1 -0.17,-0.14 0.31,0.21 4.07,-25.95 2.83,-32.67 0.29,0.19 -3.27,25.64 -2.83,32.67 -0.02,-0.01 -0.03,-0.03 -0.05,-0.04 -11.49,-28.71 -13.56,-57.53 3.83,-62.38z"/>
   <path class="fil46" d="M512.6 480.93c-14.5,33.16 -10.19,69.17 15.38,84.93 0.1,-0.04 0.2,-0.08 0.29,-0.12 0.64,-0.25 -3.75,-38.74 -4.43,-46.77 0.54,-0.29 7.82,36.3 4.43,46.77 0.03,-0.02 0.05,-0.02 0.08,-0.03 24.31,-37.17 13.67,-77.4 -15.75,-84.77z"/>
   <path class="fil47" d="M536.86 432.46c-11.3,32.73 -4.14,67.05 21.4,80.65 0.09,-0.04 0.17,-0.09 0.26,-0.13 0.55,-0.25 -6.85,-36.87 -8.09,-44.55 0.46,-0.29 10.34,34.37 8.09,44.55 0.02,-0.01 0.05,-0.02 0.08,-0.04 19.69,-36.85 6.66,-74.84 -21.73,-80.48z"/>
   <path class="fil48" d="M553.66 385.42c-6.61,32.61 4.53,64.67 30.23,74.94 0.08,-0.05 0.15,-0.1 0.23,-0.16 0.46,-0.28 -11.19,-34.41 -13.28,-41.66 0.38,-0.3 14.04,31.76 13.28,41.66 0.02,-0.01 0.04,-0.03 0.06,-0.04 13.61,-37.07 -3.21,-72.08 -30.52,-74.74z"/>
   <path class="fil49" d="M561.68 339.75c-1.38,32.16 13.78,61.33 39.23,67.85 0.06,-0.06 0.13,-0.12 0.19,-0.18 0.37,-0.31 -15.57,-31.34 -18.58,-38.04 0.3,-0.32 17.76,28.57 18.58,38.04 0.02,-0.02 0.04,-0.03 0.05,-0.05 7.06,-36.85 -13.69,-68.3 -39.47,-67.63z"/>
   <path class="fil50" d="M568.84 297.05c1.41,31.28 18.05,58.36 42.36,63 0.06,-0.06 0.11,-0.12 0.16,-0.18 0.31,-0.29 -17.22,-29.08 -20.58,-35.38 0.25,-0.29 19,26.4 20.58,35.38 0.01,-0.02 0.03,-0.03 0.05,-0.05 3.39,-35.66 -18.57,-64.81 -42.57,-62.77z"/>
   <path class="fil51" d="M568.29 256.11c6.14,30.06 25.63,53.86 48.72,55.16 0.04,-0.07 0.08,-0.13 0.12,-0.19 0.24,-0.29 -20.33,-25.58 -24.4,-31.25 0.18,-0.28 21.56,22.94 24.4,31.25 0.01,-0.02 0.02,-0.04 0.03,-0.05 -2.36,-34.36 -27.06,-59.73 -48.87,-54.92z"/>
   <path class="fil52" d="M561.91 213.83c9.79,28.77 30.9,49.77 52.29,48.7 0.03,-0.06 0.06,-0.13 0.09,-0.2 0.18,-0.27 -22.14,-22.61 -26.65,-27.75 0.13,-0.26 22.92,20.07 26.65,27.75 0.01,-0.02 0.02,-0.03 0.02,-0.05 -6.8,-32.74 -32.97,-55.09 -52.4,-48.44z"/>
   <path class="fil53" d="M550.22 174.81c13.42,27.19 35.89,45.22 55.24,41.83 0.02,-0.06 0.03,-0.13 0.05,-0.2 0.14,-0.25 -23.64,-19.47 -28.56,-24.02 0.09,-0.24 24.01,17.06 28.56,24.02 0,-0.02 0.01,-0.04 0.02,-0.06 -11.14,-30.79 -38.51,-49.96 -55.31,-41.58z"/>
   <path class="fil54" d="M534.08 136.55c16.6,25.47 39.88,40.65 56.95,35.34 0.01,-0.06 0.01,-0.13 0.01,-0.2 0.09,-0.23 -24.55,-16.46 -29.77,-20.46 0.06,-0.22 24.56,14.22 29.77,20.46 0,-0.02 0,-0.03 0.01,-0.05 -14.9,-28.64 -42.9,-44.83 -56.97,-35.08z"/>
   <path class="fil55" d="M530.76 85.19c7.53,29.18 24.79,50.83 42.82,51.25 0.03,-0.06 0.05,-0.12 0.08,-0.18 0.16,-0.19 -18.06,-23.25 -21.73,-28.66 0.13,-0.18 18.79,21.15 21.73,28.66 0,-0.02 0.01,-0.03 0.02,-0.05 -4.86,-31.62 -26.3,-55.71 -42.92,-51.02z"/>
   <path class="fil56" d="M160.72 589c-34.45,-1.46 -48.97,-4.24 -53.45,-12.2 6.61,60.62 19.49,100.54 41.54,110.2 126,-11.21 239.28,-11.21 365.28,0 22.04,-9.66 34.93,-49.57 41.54,-110.2 -4.48,7.96 -19,10.74 -53.45,12.2 -113.36,-11.85 -228.09,-11.85 -341.45,0z"/>
   <path class="fil57" d="M189.89 648.94c-0.16,0.1 -0.4,0.14 -0.72,0.14 -0.25,0 -0.54,-0.02 -0.86,-0.08 -0.32,-0.06 -0.64,-0.1 -0.96,-0.16l-4.18 0 -1.3 0.09 -1.25 0.14c-0.32,0 -0.57,-0.1 -0.77,-0.29 -0.19,-0.19 -0.29,-0.4 -0.29,-0.63 0,-0.22 0.08,-0.41 0.24,-0.55 0.16,-0.14 0.32,-0.28 0.48,-0.41 0.13,-0.16 0.19,-0.46 0.19,-0.91 0,-2.31 -0.15,-5.34 -0.46,-9.1 -0.31,-3.76 -0.67,-6.41 -1.08,-7.94 -0.16,-0.58 -0.35,-1.03 -0.57,-1.34 -0.35,-0.45 -0.8,-0.67 -1.34,-0.67 -0.8,0 -1.2,0.39 -1.2,1.16 0,0.22 0.02,0.43 0.07,0.62 0.05,0.19 0.09,0.35 0.11,0.48 0.02,0.13 0.04,0.38 0.05,0.75 0.02,0.37 0.03,0.7 0.06,0.98l0 14.85c0,0.55 0.05,0.89 0.14,1.02 0.23,0.13 0.4,0.24 0.53,0.34 0.29,0.22 0.43,0.51 0.43,0.87 0,0.51 -0.34,0.77 -1.04,0.77 -0.5,0 -0.9,-0.04 -1.19,-0.12 -0.29,-0.08 -0.53,-0.12 -0.76,-0.12l-4.59 0c-0.44,0 -0.86,0.04 -1.26,0.12 -0.39,0.08 -0.64,0.12 -0.74,0.12 -0.6,0 -0.9,-0.29 -0.9,-0.86 0,-0.32 0.1,-0.56 0.3,-0.72 0.2,-0.16 0.42,-0.34 0.64,-0.53 0.12,-0.19 0.2,-0.47 0.24,-0.84 0.04,-0.37 0.06,-0.86 0.06,-1.47 0,-0.51 0,-2.28 0,-5.3 0,-3.02 0,-5.71 0,-8.04l0 -5.9 0 -2.59c0,-0.9 0,-1.78 0,-2.64 0,-0.86 0,-1.71 0,-2.54 0,-0.64 -0.15,-1.09 -0.46,-1.34 -0.3,-0.25 -0.46,-0.43 -0.46,-0.53 0,-0.42 0.34,-0.63 1.04,-0.63 0.16,0 0.35,0.01 0.59,0.02 0.24,0.02 0.51,0.04 0.83,0.07l4.63 0 0.94 -0.1 0.9 -0.1c0.28,0 0.52,0.03 0.71,0.1 0.19,0.06 0.28,0.24 0.28,0.53 0,0.25 -0.17,0.51 -0.5,0.77 -0.15,0.13 -0.26,0.29 -0.32,0.48 -0.06,0.19 -0.09,0.4 -0.09,0.62 0,0.48 0,0.85 0,1.11l0 4.22c0,0.22 0,0.48 0,0.77 0,0.29 0,0.58 0,0.86 0,0.13 0.03,0.3 0.1,0.53 0.06,0.22 0.21,0.42 0.43,0.57 0.22,0.16 0.49,0.24 0.81,0.24 0.25,0 0.5,-0.05 0.74,-0.14 0.24,-0.1 0.49,-0.22 0.74,-0.38 0.92,-0.58 1.64,-1.34 2.15,-2.3 0.42,-0.77 0.78,-1.87 1.1,-3.29 0.32,-1.42 0.72,-2.5 1.2,-3.24 0.82,-1.28 1.96,-1.92 3.39,-1.92 0.77,0 1.42,0.23 1.96,0.7 0.54,0.46 0.82,1.19 0.82,2.18 0,0.8 -0.25,1.42 -0.74,1.87 -0.5,0.45 -1.07,0.67 -1.7,0.67 -0.25,0 -0.58,-0.1 -0.96,-0.29 -0.38,-0.19 -0.65,-0.29 -0.82,-0.29 -0.35,0 -0.7,0.2 -1.05,0.6 -0.35,0.4 -0.53,0.96 -0.53,1.66 0,0.51 0.07,1.01 0.21,1.49 0.14,0.49 0.41,1.11 0.79,1.88 1.31,2.5 2.14,4.29 2.5,5.34 0.9,2.67 1.34,5.85 1.34,9.54 0,1.38 0.01,2.53 0.05,3.45 0.03,0.91 0.14,1.94 0.34,3.1 0.09,0.45 0.22,0.73 0.38,0.84 0.16,0.11 0.34,0.22 0.55,0.31 0.21,0.1 0.31,0.31 0.31,0.63 0,0.32 -0.11,0.54 -0.34,0.67zm19.97 -32.69c-0.29,0.32 -0.57,0.64 -0.86,0.96 -0.35,0.54 -0.53,1.22 -0.53,2.02l0 18.63c0,4.16 -0.34,6.95 -1.01,8.35 -1.05,2.21 -3.41,3.31 -7.06,3.31 -3.27,0 -5.54,-1.01 -6.82,-3.02 -0.86,-1.38 -1.3,-3.3 -1.3,-5.76l0 -22.42c0,-0.29 0,-0.58 0,-0.86 -0.06,-0.35 -0.21,-0.64 -0.43,-0.86 -0.1,-0.06 -0.19,-0.14 -0.29,-0.24 -0.23,-0.19 -0.34,-0.42 -0.34,-0.67 0,-0.45 0.35,-0.67 1.06,-0.67 0.35,0 0.65,0.04 0.89,0.12 0.24,0.08 0.65,0.12 1.22,0.12l3.51 0c0.19,0 0.49,-0.04 0.91,-0.12 0.42,-0.08 0.72,-0.12 0.91,-0.12l1.01 0c0.64,0 0.96,0.19 0.96,0.58 0,0.29 -0.1,0.54 -0.31,0.74 -0.21,0.21 -0.41,0.41 -0.61,0.6 -0.15,0.19 -0.23,0.46 -0.23,0.82 0,0.19 0,0.55 0,1.08 0,0.53 0,0.9 0,1.13l0 14.35c0,2.11 -0.04,3.59 -0.12,4.44 -0.08,0.85 -0.12,1.3 -0.12,1.37 0,1.54 0.11,2.64 0.34,3.31 0.39,1.15 1.18,1.73 2.38,1.73 1.32,0 2.18,-0.85 2.57,-2.54 0.19,-0.87 0.29,-2.6 0.29,-5.2l0 -15.82c0,-0.45 0,-0.87 0,-1.27 0,-0.4 0,-0.79 0,-1.18 0,-0.48 -0.03,-0.87 -0.1,-1.18 -0.06,-0.31 -0.22,-0.62 -0.46,-0.94 -0.13,-0.16 -0.34,-0.36 -0.65,-0.6 -0.31,-0.24 -0.46,-0.5 -0.46,-0.79 0,-0.42 0.25,-0.63 0.76,-0.63 0.16,0 0.42,0.04 0.77,0.12 0.34,0.08 0.59,0.12 0.71,0.12l1.52 0c0.7,-0.06 1.21,-0.1 1.53,-0.1 0.54,0 0.81,0.13 0.81,0.38 0,0.13 -0.14,0.37 -0.43,0.72zm19.25 4.56c0,0.93 -0.13,1.58 -0.38,1.94 -0.25,0.37 -0.56,0.55 -0.91,0.55 -0.67,0 -1.12,-0.34 -1.34,-1.01 -0.19,-0.99 -0.38,-1.79 -0.57,-2.4 -0.42,-1.38 -0.94,-2.4 -1.56,-3.07 -0.62,-0.67 -1.22,-1.01 -1.8,-1.01 -0.29,0 -0.54,0.09 -0.75,0.27 -0.21,0.17 -0.34,0.36 -0.41,0.55 -0.06,0.19 -0.06,0.51 0,0.96 0.1,0.67 0.14,1.11 0.14,1.32 0,0.21 0,0.47 0,0.79l0 15.43 0 6.51 0 2.4 0 1.15c0,0.89 0.12,1.54 0.36,1.96 0.24,0.42 0.81,0.62 1.7,0.62 0.54,0 0.98,-0.23 1.3,-0.7 0.32,-0.46 0.48,-1.02 0.48,-1.66 0,-0.13 -0.03,-0.34 -0.1,-0.63 -0.06,-0.29 -0.1,-0.5 -0.1,-0.62 0,-0.54 0.17,-1.04 0.5,-1.49 0.34,-0.45 0.82,-0.67 1.47,-0.67 0.54,0 0.95,0.19 1.22,0.57 0.27,0.38 0.41,0.86 0.41,1.44 0,1.09 -0.63,2.22 -1.87,3.38 -1.25,1.17 -2.67,1.75 -4.27,1.75 -2.72,0 -5.02,-1.51 -6.91,-4.51 -2.14,-3.42 -3.22,-8.06 -3.22,-13.91 0,-5.14 0.93,-9.3 2.79,-12.46 1.66,-2.81 3.6,-4.22 5.81,-4.22 0.61,0 1.18,0.11 1.73,0.34 0.54,0.22 0.92,0.38 1.13,0.46 0.21,0.08 0.44,0.12 0.7,0.12 0.38,0 0.69,-0.18 0.91,-0.55 0.23,-0.37 0.48,-0.55 0.77,-0.55 0.83,0 1.31,0.13 1.44,0.38 0.1,0.58 0.21,1.14 0.34,1.68 0.29,1.06 0.49,1.84 0.62,2.35 0.25,0.96 0.38,1.79 0.38,2.5zm23.33 27.46c0,0.51 -0.31,0.77 -0.94,0.77 -0.19,0 -0.52,-0.03 -0.99,-0.1 -0.48,-0.06 -0.84,-0.09 -1.09,-0.09l-3.78 0c-0.25,0 -0.57,0.02 -0.95,0.05 -0.38,0.03 -0.77,0.08 -1.18,0.14 -0.5,0 -0.76,-0.21 -0.76,-0.62 0,-0.29 0.15,-0.63 0.45,-1.01 0.18,-0.19 0.27,-0.45 0.27,-0.77 0,-0.26 0,-0.45 0,-0.58l0 -11.95c0,-1.41 -0.14,-2.37 -0.42,-2.88 -0.29,-0.51 -0.78,-0.77 -1.47,-0.77 -0.67,0 -1.1,0.21 -1.3,0.62 -0.2,0.42 -0.31,0.83 -0.31,1.25l0 1.06 0 1.54 0 11.19c0,0.54 0.1,0.9 0.29,1.08 0.19,0.18 0.3,0.28 0.34,0.31 0.19,0.19 0.29,0.46 0.29,0.82 0,0.48 -0.3,0.72 -0.9,0.72 -0.19,0 -0.5,-0.03 -0.95,-0.1 -0.44,-0.06 -0.79,-0.09 -1.04,-0.09l-3.71 0c-0.32,0 -0.68,0.02 -1.1,0.05 -0.41,0.03 -0.86,0.08 -1.33,0.14 -0.54,0 -0.81,-0.21 -0.81,-0.62 0,-0.45 0.15,-0.75 0.46,-0.91 0.31,-0.16 0.46,-0.66 0.46,-1.5 0,-2.08 -0.04,-4.38 -0.12,-6.92 -0.08,-2.53 -0.12,-4.05 -0.12,-4.57 0,-1.66 0.02,-4.2 0.07,-7.62 0.05,-3.41 0.1,-6.49 0.17,-9.26 0.06,-0.58 -0.03,-0.98 -0.29,-1.2 -0.19,-0.1 -0.34,-0.19 -0.46,-0.29 -0.11,-0.1 -0.17,-0.26 -0.17,-0.48 0,-0.38 0.26,-0.58 0.77,-0.58 0.55,0.1 0.94,0.14 1.16,0.14l4.49 0c0.83,0 1.4,-0.02 1.69,-0.05 0.29,-0.03 0.58,-0.06 0.87,-0.1 0.58,0 0.87,0.18 0.87,0.53 0,0.19 -0.07,0.36 -0.22,0.5 -0.15,0.14 -0.29,0.28 -0.41,0.41 -0.12,0.13 -0.19,0.28 -0.23,0.46 -0.03,0.17 -0.05,0.6 -0.05,1.27l0 6.48c0,1.06 0.04,1.84 0.12,2.35 0.07,0.51 0.18,0.91 0.31,1.2 0.12,0.29 0.31,0.49 0.58,0.6 0.27,0.11 0.55,0.17 0.86,0.17 0.59,0 1.01,-0.16 1.26,-0.48 0.25,-0.32 0.38,-0.78 0.38,-1.39l0 -1.97 0 -6.96c0,-0.64 -0.02,-1.07 -0.04,-1.3 -0.03,-0.23 -0.07,-0.38 -0.13,-0.48 -0.14,-0.13 -0.24,-0.23 -0.3,-0.29 -0.17,-0.16 -0.25,-0.35 -0.25,-0.58 0,-0.35 0.24,-0.53 0.71,-0.53 0.22,0 0.46,0.02 0.73,0.05 0.27,0.03 0.54,0.06 0.83,0.1l5.2 0c0.23,0 0.5,-0.02 0.86,-0.07 0.35,-0.05 0.54,-0.07 0.57,-0.07 0.54,0 0.8,0.18 0.8,0.53 0,0.35 -0.17,0.61 -0.5,0.77 -0.34,0.16 -0.5,0.48 -0.5,0.96 0,0.54 0.04,2.54 0.12,5.96 0.08,3.43 0.12,6.64 0.12,9.62 0,4.39 -0.03,7.39 -0.1,9.02 -0.06,1.62 -0.11,2.97 -0.14,4.06 0,0.65 0.17,1.09 0.5,1.33 0.34,0.24 0.5,0.55 0.5,0.94zm86.36 0c0,0.22 -0.1,0.43 -0.29,0.63 -0.19,0.19 -0.49,0.29 -0.92,0.29 -0.26,0 -0.48,-0.03 -0.67,-0.09 -0.19,-0.06 -0.4,-0.11 -0.62,-0.17 -0.23,-0.06 -0.49,-0.08 -0.8,-0.08 -0.31,0 -0.54,0 -0.7,0l-0.92 0 -2.65 0 -1.73 0.14c-0.23,0.03 -0.44,0.07 -0.65,0.12 -0.21,0.05 -0.47,0.07 -0.79,0.07 -0.74,0 -1.11,-0.24 -1.11,-0.72 0,-0.48 0.23,-0.83 0.69,-1.03 0.46,-0.21 0.74,-0.36 0.84,-0.46 0.23,-0.23 0.34,-0.58 0.34,-1.06l0 -1.01c-0.13,-1.18 -0.75,-2.03 -1.87,-2.54 -0.71,-0.32 -1.47,-0.48 -2.31,-0.48 -1.34,0 -2.3,0.42 -2.88,1.26 -0.38,0.59 -0.58,1.3 -0.58,2.18 0,0.7 0.16,1.24 0.47,1.59 0.19,0.23 0.48,0.42 0.89,0.61 0.41,0.17 0.61,0.44 0.61,0.79 0,0.29 0,0.49 0,0.59 0,0.19 -0.26,0.29 -0.77,0.29l-1.34 -0.17 -1.54 -0.17 -2.06 0.14c-0.16,0 -0.3,-0.02 -0.43,-0.05 -0.45,-0.13 -0.67,-0.37 -0.67,-0.72 0,-0.45 0.25,-0.75 0.74,-0.91 0.5,-0.16 0.84,-0.38 1.03,-0.65 0.19,-0.27 0.36,-0.9 0.5,-1.9 0.14,-0.99 0.27,-1.9 0.36,-2.73 0.54,-4.07 1.14,-7.63 1.78,-10.71 0.45,-2.24 0.94,-4.3 1.49,-6.19 0.67,-2.4 1.02,-3.66 1.05,-3.79 0.19,-0.93 0.29,-1.63 0.29,-2.11 0,-0.61 -0.1,-1.02 -0.31,-1.25 -0.21,-0.22 -0.56,-0.46 -1.05,-0.7 -0.5,-0.24 -0.74,-0.63 -0.74,-1.18 0,-0.32 0.13,-0.56 0.38,-0.72 0.25,-0.16 0.56,-0.24 0.91,-0.24 0.25,0 0.73,0.03 1.41,0.1 0.69,0.06 1.07,0.09 1.13,0.09l1.15 -0.09c0.13,-0.03 0.68,-0.1 1.66,-0.22 0.98,-0.12 1.67,-0.17 2.09,-0.17 0.54,0 0.94,0.07 1.18,0.21 0.24,0.14 0.47,0.5 0.7,1.08 0.57,1.41 1.29,4.69 2.14,9.84 0.85,5.15 1.59,10.64 2.23,16.47 0.19,1.82 0.29,2.75 0.29,2.78 0.19,0.99 0.53,1.65 1.01,1.97 0.19,0.13 0.4,0.24 0.63,0.34 0.29,0.19 0.43,0.43 0.43,0.72zm-10.8 -10.13c0,-0.74 -0.03,-1.34 -0.1,-1.83 -0.06,-0.48 -0.32,-1.92 -0.77,-4.32 -0.13,-0.67 -0.24,-1.3 -0.34,-1.89 -0.1,-0.59 -0.14,-1.13 -0.14,-1.61l0 -0.96c0,-0.38 -0.05,-0.67 -0.14,-0.86 -0.19,-0.38 -0.51,-0.58 -0.96,-0.58 -0.96,0 -1.78,1.76 -2.45,5.28 -0.51,2.72 -0.77,4.9 -0.77,6.53 0,1.12 0.32,1.87 0.96,2.26 0.35,0.22 0.88,0.34 1.58,0.34l1.01 0c0.9,0 1.51,-0.29 1.83,-0.86 0.19,-0.35 0.29,-0.85 0.29,-1.49zm34.47 -6.89c0,2.72 -0.17,4.92 -0.53,6.62 -0.57,2.78 -1.68,5.21 -3.31,7.29 -1.28,1.59 -2.61,2.7 -3.98,3.31 -1.12,0.48 -2.55,0.72 -4.27,0.72l-1.87 -0.13c-0.42,-0.06 -0.78,-0.1 -1.08,-0.14 -0.31,-0.04 -0.55,-0.06 -0.75,-0.06l-2.98 0c-0.54,0 -1.01,0.06 -1.39,0.17 -0.39,0.11 -0.67,0.17 -0.86,0.17 -0.32,0 -0.6,-0.09 -0.84,-0.27 -0.24,-0.17 -0.36,-0.38 -0.36,-0.6 0,-0.19 0.1,-0.38 0.29,-0.58 0.03,-0.03 0.19,-0.15 0.48,-0.36 0.29,-0.21 0.49,-0.42 0.6,-0.65 0.11,-0.23 0.19,-0.46 0.22,-0.7 0.03,-0.24 0.05,-0.55 0.05,-0.93 0,-0.45 -0.02,-1.15 -0.07,-2.11 -0.05,-0.96 -0.07,-1.54 -0.07,-1.73l0 -22.8c0,-0.67 0,-1.1 0,-1.3 0,-0.35 -0.19,-0.62 -0.55,-0.82 -0.37,-0.19 -0.55,-0.43 -0.55,-0.72 0,-0.29 0.1,-0.46 0.31,-0.53 0.21,-0.06 0.47,-0.1 0.79,-0.1 0.61,0 1.06,0.04 1.34,0.12 0.29,0.08 0.57,0.12 0.86,0.12l3.7 0c0.58,0 1.04,-0.02 1.39,-0.05 1.44,-0.13 2.24,-0.19 2.4,-0.19 0.74,0 1.44,0.07 2.11,0.22 0.67,0.14 1.41,0.44 2.21,0.89 2.75,1.47 4.66,3.85 5.71,7.14 0.67,2.14 1.01,4.81 1.01,8zm-9.03 5.72l0 -11.77c0,-2.39 -0.03,-4.02 -0.09,-4.86 -0.06,-0.84 -0.18,-1.58 -0.35,-2.2 -0.16,-0.62 -0.42,-1.07 -0.78,-1.34 -0.35,-0.27 -0.74,-0.41 -1.17,-0.41 -0.38,0 -0.74,0.14 -1.04,0.41 -0.31,0.27 -0.46,0.73 -0.46,1.36 0,0.45 0.04,0.78 0.11,1.01 0.07,0.22 0.1,0.38 0.1,0.48 0.14,0.61 0.22,1.29 0.22,2.06l0 16.61 -0.14 4.93c0,0.73 -0.05,1.32 -0.14,1.77 -0.1,0.45 -0.14,0.78 -0.14,1.01 0,0.7 0.19,1.19 0.57,1.48 0.26,0.19 0.58,0.29 0.96,0.29 0.74,0 1.28,-0.48 1.63,-1.43 0.16,-0.41 0.3,-0.98 0.41,-1.7 0.11,-0.72 0.19,-1.56 0.24,-2.54 0.05,-0.97 0.07,-2.05 0.07,-3.23l0 -1.91zm33.32 -5.22c0,3.91 -0.3,6.99 -0.91,9.26 -0.8,2.98 -2.21,5.19 -4.22,6.62 -1.6,1.12 -3.26,1.68 -4.99,1.68 -1.57,0 -3.04,-0.38 -4.42,-1.15 -1.98,-1.12 -3.55,-2.86 -4.7,-5.23 -1.44,-3.01 -2.16,-6.94 -2.16,-11.81 0,-4.99 0.94,-8.98 2.83,-11.95 1.89,-2.98 4.38,-4.47 7.49,-4.47 1.41,0 2.71,0.25 3.91,0.74 1.2,0.5 2.28,1.27 3.24,2.33 1.63,1.79 2.75,4.24 3.36,7.34 0.38,1.89 0.58,4.1 0.58,6.63zm-8.16 14.88c0,-0.35 -0.07,-0.75 -0.21,-1.2 -0.14,-0.45 -0.24,-0.8 -0.3,-1.06 -0.17,-0.61 -0.25,-1.74 -0.25,-3.41l0 -2.21 0 -7.06 0 -11.33c0,-1.63 -0.2,-2.75 -0.6,-3.36 -0.4,-0.61 -0.98,-0.91 -1.75,-0.91 -0.58,0 -1.02,0.15 -1.32,0.46 -0.31,0.3 -0.46,0.65 -0.46,1.03 0.19,0.48 0.33,0.85 0.41,1.11 0.08,0.25 0.13,0.54 0.17,0.86 0.03,0.32 0.05,1.07 0.05,2.25 0,1.44 0,2.87 0,4.3 0,1.43 0,2.86 0,4.3l0 13.44c0,1.19 0.24,2.16 0.73,2.93 0.49,0.77 1.15,1.15 1.99,1.15 0.52,0 0.9,-0.14 1.16,-0.43 0.26,-0.29 0.39,-0.58 0.39,-0.86zm27.32 -4.32c0,0.22 -0.02,0.51 -0.07,0.86 -0.05,0.35 -0.14,0.82 -0.29,1.42 -0.14,0.59 -0.27,1.26 -0.36,2.02 -0.1,0.75 -0.14,1.56 -0.14,2.42 0,0.26 -0.02,0.46 -0.07,0.63 -0.05,0.16 -0.3,0.24 -0.74,0.24 -0.45,0 -0.82,-0.09 -1.1,-0.26 -0.29,-0.18 -0.59,-0.35 -0.91,-0.53 -0.32,-0.18 -1.07,-0.26 -2.26,-0.26l-7.92 0 -1.05 0.14 -0.86 0.05c-0.64,0 -0.96,-0.24 -0.96,-0.72 0,-0.25 0.1,-0.46 0.31,-0.63 0.21,-0.16 0.43,-0.34 0.65,-0.53 0.19,-0.29 0.29,-0.98 0.29,-2.06l0 -6.1 0 -14.22c0,-1.18 0,-2.34 0,-3.48 0,-1.14 0,-2.26 0,-3.38 0,-0.67 -0.1,-1.1 -0.31,-1.27 -0.21,-0.18 -0.36,-0.31 -0.46,-0.41 -0.22,-0.19 -0.34,-0.41 -0.34,-0.63 0,-0.42 0.22,-0.63 0.67,-0.63 0.16,0 0.47,0.05 0.95,0.13 0.48,0.09 0.78,0.13 0.91,0.13l4.49 0c0.79,0 1.32,-0.04 1.58,-0.13 0.25,-0.08 0.53,-0.13 0.82,-0.13 0.6,0 0.9,0.25 0.9,0.73 0,0.29 -0.16,0.53 -0.48,0.72 -0.19,0.1 -0.34,0.17 -0.43,0.22 -0.1,0.05 -0.16,0.17 -0.19,0.36l0 2.11 0 2.41c0,1.38 0,2.75 0,4.11 0,1.36 0,2.72 0,4.07l0 10.67c0,1.07 -0.01,1.94 -0.03,2.62 -0.02,0.69 -0.04,1.37 -0.06,2.04 0,0.84 0.16,1.45 0.48,1.83 0.32,0.38 0.67,0.58 1.06,0.58 0.54,0 1.04,-0.21 1.49,-0.63 0.64,-0.57 1.11,-1.49 1.39,-2.73 0.16,-0.74 0.38,-1.32 0.65,-1.75 0.27,-0.43 0.73,-0.65 1.37,-0.65 0.71,0 1.06,0.21 1.06,0.62zm23.43 5.95c0,0.22 -0.1,0.43 -0.29,0.63 -0.19,0.19 -0.49,0.29 -0.92,0.29 -0.26,0 -0.48,-0.03 -0.67,-0.09 -0.19,-0.06 -0.4,-0.11 -0.62,-0.17 -0.23,-0.06 -0.49,-0.08 -0.8,-0.08 -0.31,0 -0.54,0 -0.7,0l-0.92 0 -2.65 0 -1.74 0.14c-0.23,0.03 -0.44,0.07 -0.65,0.12 -0.21,0.05 -0.47,0.07 -0.79,0.07 -0.74,0 -1.11,-0.24 -1.11,-0.72 0,-0.48 0.23,-0.83 0.69,-1.03 0.46,-0.21 0.74,-0.36 0.84,-0.46 0.23,-0.23 0.34,-0.58 0.34,-1.06l0 -1.01c-0.13,-1.18 -0.75,-2.03 -1.87,-2.54 -0.71,-0.32 -1.47,-0.48 -2.31,-0.48 -1.34,0 -2.3,0.42 -2.88,1.26 -0.38,0.59 -0.58,1.3 -0.58,2.18 0,0.7 0.16,1.24 0.47,1.59 0.19,0.23 0.48,0.42 0.89,0.61 0.41,0.17 0.61,0.44 0.61,0.79 0,0.29 0,0.49 0,0.59 0,0.19 -0.26,0.29 -0.77,0.29l-1.34 -0.17 -1.54 -0.17 -2.06 0.14c-0.16,0 -0.3,-0.02 -0.43,-0.05 -0.45,-0.13 -0.67,-0.37 -0.67,-0.72 0,-0.45 0.25,-0.75 0.74,-0.91 0.5,-0.16 0.84,-0.38 1.03,-0.65 0.19,-0.27 0.36,-0.9 0.5,-1.9 0.14,-0.99 0.27,-1.9 0.36,-2.73 0.54,-4.07 1.14,-7.63 1.78,-10.71 0.45,-2.24 0.94,-4.3 1.49,-6.19 0.67,-2.4 1.02,-3.66 1.05,-3.79 0.19,-0.93 0.29,-1.63 0.29,-2.11 0,-0.61 -0.1,-1.02 -0.31,-1.25 -0.21,-0.22 -0.56,-0.46 -1.05,-0.7 -0.5,-0.24 -0.74,-0.63 -0.74,-1.18 0,-0.32 0.13,-0.56 0.38,-0.72 0.25,-0.16 0.56,-0.24 0.91,-0.24 0.25,0 0.73,0.03 1.41,0.1 0.69,0.06 1.07,0.09 1.13,0.09l1.15 -0.09c0.13,-0.03 0.68,-0.1 1.66,-0.22 0.98,-0.12 1.67,-0.17 2.09,-0.17 0.54,0 0.94,0.07 1.18,0.21 0.24,0.14 0.47,0.5 0.7,1.08 0.57,1.41 1.29,4.69 2.14,9.84 0.85,5.15 1.59,10.64 2.23,16.47 0.19,1.82 0.29,2.75 0.29,2.78 0.19,0.99 0.53,1.65 1.01,1.97 0.19,0.13 0.4,0.24 0.63,0.34 0.29,0.19 0.43,0.43 0.43,0.72zm-10.8 -10.13c0,-0.74 -0.03,-1.34 -0.09,-1.83 -0.06,-0.48 -0.32,-1.92 -0.77,-4.32 -0.13,-0.67 -0.24,-1.3 -0.34,-1.89 -0.1,-0.59 -0.14,-1.13 -0.14,-1.61l0 -0.96c0,-0.38 -0.05,-0.67 -0.14,-0.86 -0.19,-0.38 -0.51,-0.58 -0.96,-0.58 -0.96,0 -1.78,1.76 -2.45,5.28 -0.51,2.72 -0.77,4.9 -0.77,6.53 0,1.12 0.32,1.87 0.96,2.26 0.35,0.22 0.88,0.34 1.59,0.34l1.01 0c0.9,0 1.51,-0.29 1.83,-0.86 0.19,-0.35 0.29,-0.85 0.29,-1.49zm29.48 -17.86c0,0.35 -0.04,0.61 -0.11,0.77 -0.08,0.16 -0.34,0.24 -0.77,0.24 -0.62,0 -1.1,-0.18 -1.42,-0.53 -0.33,-0.35 -0.49,-0.8 -0.49,-1.34l0 -0.82 0 -0.72c-0.03,-0.42 -0.18,-0.75 -0.43,-1.01 -0.25,-0.26 -0.53,-0.38 -0.82,-0.38 -0.35,0 -0.62,0.07 -0.82,0.21 -0.19,0.14 -0.29,0.42 -0.29,0.84 0,0.19 0.02,0.38 0.04,0.55 0.03,0.18 0.08,0.43 0.15,0.77 0.07,0.34 0.12,0.75 0.15,1.25 0.02,0.5 0.04,1.18 0.04,2.04l0 4.23 0 7.1 0 4.75 0 3.46 0 3.31c0,0.64 0.03,1.12 0.09,1.44 0.06,0.32 0.29,0.62 0.67,0.89 0.39,0.27 0.59,0.57 0.59,0.89 0,0.58 -0.38,0.86 -1.14,0.86 -0.32,0 -0.78,-0.04 -1.38,-0.12 -0.6,-0.08 -0.94,-0.12 -1.04,-0.12l-4.5 0c-0.34,0 -0.72,0.04 -1.11,0.12 -0.39,0.08 -0.69,0.12 -0.87,0.12 -0.57,0 -0.86,-0.22 -0.86,-0.67 0,-0.35 0.17,-0.66 0.49,-0.91 0.15,-0.1 0.3,-0.21 0.45,-0.34 0.15,-0.13 0.27,-0.33 0.36,-0.6 0.09,-0.28 0.13,-0.69 0.13,-1.23l0 -3.31 0 -8.51 0 -6.54c0,-1.7 0.01,-3.35 0.02,-4.95 0.02,-1.6 0.1,-2.84 0.24,-3.7 0.02,-0.13 0.03,-0.32 0.03,-0.58 0,-0.42 -0.1,-0.71 -0.31,-0.89 -0.21,-0.18 -0.46,-0.26 -0.74,-0.26 -0.35,0 -0.65,0.12 -0.89,0.36 -0.24,0.24 -0.36,0.68 -0.36,1.32l0 0.86 0 0.86c-0.19,0.86 -0.78,1.3 -1.79,1.3 -0.41,0 -0.69,-0.09 -0.82,-0.27 -0.14,-0.17 -0.21,-0.46 -0.21,-0.84 0,-0.45 0.15,-1.17 0.45,-2.16 0.3,-0.99 0.49,-1.76 0.56,-2.3 0,-0.39 0.06,-0.68 0.19,-0.89 0.13,-0.21 0.41,-0.31 0.86,-0.31 0.34,0 0.61,0.02 0.78,0.07 0.18,0.05 0.5,0.17 0.98,0.36 0.47,0.19 0.86,0.29 1.14,0.29l7.23 0c0.44,0 0.78,-0.02 1.02,-0.07 0.24,-0.05 0.66,-0.17 1.26,-0.36 0.25,-0.06 0.5,-0.13 0.76,-0.19 0.25,-0.06 0.51,-0.09 0.76,-0.09 0.73,0 1.1,0.38 1.1,1.15l0.29 2.4c0.09,0.45 0.17,0.85 0.24,1.2 0.06,0.35 0.1,0.69 0.1,1.01z"/>
   <path class="fil58" d="M471.74 631.25c0,2.72 -0.17,4.92 -0.53,6.62 -0.57,2.78 -1.68,5.21 -3.31,7.29 -1.28,1.59 -2.61,2.7 -3.98,3.31 -1.12,0.48 -2.54,0.72 -4.27,0.72l-1.87 -0.13c-0.42,-0.06 -0.78,-0.1 -1.08,-0.14 -0.31,-0.04 -0.55,-0.06 -0.75,-0.06l-2.98 0c-0.54,0 -1.01,0.06 -1.39,0.17 -0.39,0.11 -0.67,0.17 -0.86,0.17 -0.32,0 -0.6,-0.09 -0.84,-0.27 -0.24,-0.17 -0.36,-0.38 -0.36,-0.6 0,-0.19 0.1,-0.38 0.29,-0.58 0.03,-0.03 0.19,-0.15 0.48,-0.36 0.29,-0.21 0.49,-0.42 0.6,-0.65 0.11,-0.23 0.19,-0.46 0.22,-0.7 0.03,-0.24 0.05,-0.55 0.05,-0.93 0,-0.45 -0.02,-1.15 -0.07,-2.11 -0.05,-0.96 -0.07,-1.54 -0.07,-1.73l0 -22.8c0,-0.67 0,-1.1 0,-1.3 0,-0.35 -0.19,-0.62 -0.55,-0.82 -0.37,-0.19 -0.55,-0.43 -0.55,-0.72 0,-0.29 0.1,-0.46 0.31,-0.53 0.21,-0.06 0.47,-0.1 0.79,-0.1 0.61,0 1.06,0.04 1.34,0.12 0.29,0.08 0.57,0.12 0.86,0.12l3.7 0c0.58,0 1.04,-0.02 1.39,-0.05 1.44,-0.13 2.24,-0.19 2.4,-0.19 0.74,0 1.44,0.07 2.11,0.22 0.67,0.14 1.41,0.44 2.21,0.89 2.75,1.47 4.66,3.85 5.71,7.14 0.67,2.14 1.01,4.81 1.01,8zm-9.03 5.72l0 -11.77c0,-2.39 -0.03,-4.02 -0.09,-4.86 -0.06,-0.84 -0.18,-1.58 -0.35,-2.2 -0.16,-0.62 -0.42,-1.07 -0.78,-1.34 -0.35,-0.27 -0.74,-0.41 -1.17,-0.41 -0.38,0 -0.74,0.14 -1.04,0.41 -0.31,0.27 -0.46,0.73 -0.46,1.36 0,0.45 0.04,0.78 0.11,1.01 0.07,0.22 0.1,0.38 0.1,0.48 0.14,0.61 0.22,1.29 0.22,2.06l0 16.61 -0.14 4.93c0,0.73 -0.05,1.32 -0.14,1.77 -0.09,0.45 -0.14,0.78 -0.14,1.01 0,0.7 0.19,1.19 0.57,1.48 0.26,0.19 0.58,0.29 0.96,0.29 0.74,0 1.28,-0.48 1.63,-1.43 0.16,-0.41 0.3,-0.98 0.41,-1.7 0.11,-0.72 0.19,-1.56 0.24,-2.54 0.05,-0.97 0.07,-2.05 0.07,-3.23l0 -1.91zm33.41 11.3c0,0.22 -0.1,0.43 -0.29,0.63 -0.19,0.19 -0.49,0.29 -0.92,0.29 -0.26,0 -0.48,-0.03 -0.67,-0.09 -0.19,-0.06 -0.4,-0.11 -0.62,-0.17 -0.23,-0.06 -0.49,-0.08 -0.8,-0.08 -0.3,0 -0.53,0 -0.7,0l-0.92 0 -2.65 0 -1.73 0.14c-0.23,0.03 -0.44,0.07 -0.65,0.12 -0.21,0.05 -0.47,0.07 -0.79,0.07 -0.74,0 -1.11,-0.24 -1.11,-0.72 0,-0.48 0.23,-0.83 0.69,-1.03 0.46,-0.21 0.74,-0.36 0.84,-0.46 0.23,-0.23 0.34,-0.58 0.34,-1.06l0 -1.01c-0.13,-1.18 -0.75,-2.03 -1.87,-2.54 -0.71,-0.32 -1.47,-0.48 -2.31,-0.48 -1.34,0 -2.3,0.42 -2.88,1.26 -0.38,0.59 -0.58,1.3 -0.58,2.18 0,0.7 0.16,1.24 0.47,1.59 0.19,0.23 0.48,0.42 0.89,0.61 0.41,0.17 0.61,0.44 0.61,0.79 0,0.29 0,0.49 0,0.59 0,0.19 -0.26,0.29 -0.77,0.29l-1.34 -0.17 -1.54 -0.17 -2.06 0.14c-0.16,0 -0.3,-0.02 -0.43,-0.05 -0.45,-0.13 -0.67,-0.37 -0.67,-0.72 0,-0.45 0.25,-0.75 0.74,-0.91 0.5,-0.16 0.84,-0.38 1.03,-0.65 0.19,-0.27 0.36,-0.9 0.5,-1.9 0.14,-0.99 0.27,-1.9 0.36,-2.73 0.54,-4.07 1.14,-7.63 1.78,-10.71 0.45,-2.24 0.94,-4.3 1.49,-6.19 0.67,-2.4 1.02,-3.66 1.05,-3.79 0.19,-0.93 0.29,-1.63 0.29,-2.11 0,-0.61 -0.1,-1.02 -0.31,-1.25 -0.21,-0.22 -0.56,-0.46 -1.05,-0.7 -0.5,-0.24 -0.75,-0.63 -0.75,-1.18 0,-0.32 0.13,-0.56 0.39,-0.72 0.25,-0.16 0.56,-0.24 0.91,-0.24 0.25,0 0.73,0.03 1.41,0.1 0.69,0.06 1.07,0.09 1.13,0.09l1.15 -0.09c0.13,-0.03 0.68,-0.1 1.66,-0.22 0.98,-0.12 1.67,-0.17 2.09,-0.17 0.54,0 0.94,0.07 1.18,0.21 0.24,0.14 0.47,0.5 0.7,1.08 0.58,1.41 1.29,4.69 2.14,9.84 0.85,5.15 1.59,10.64 2.23,16.47 0.19,1.82 0.29,2.75 0.29,2.78 0.19,0.99 0.53,1.65 1.01,1.97 0.19,0.13 0.4,0.24 0.63,0.34 0.29,0.19 0.43,0.43 0.43,0.72zm-10.8 -10.13c0,-0.74 -0.03,-1.34 -0.1,-1.83 -0.06,-0.48 -0.32,-1.92 -0.77,-4.32 -0.13,-0.67 -0.24,-1.3 -0.34,-1.89 -0.1,-0.59 -0.14,-1.13 -0.14,-1.61l0 -0.96c0,-0.38 -0.05,-0.67 -0.14,-0.86 -0.19,-0.38 -0.51,-0.58 -0.96,-0.58 -0.96,0 -1.78,1.76 -2.45,5.28 -0.51,2.72 -0.77,4.9 -0.77,6.53 0,1.12 0.32,1.87 0.96,2.26 0.35,0.22 0.88,0.34 1.58,0.34l1.01 0c0.9,0 1.51,-0.29 1.83,-0.86 0.19,-0.35 0.29,-0.85 0.29,-1.49zm-180.65 -10.42l-39.89 0 0 -2.25 39.89 0 0 2.25z"/>
  </g>
 </g>
</svg>